# Blender 4.0.2
# www.blender.org
mtllib tile3.mtl
o Untitled
v 3.800000 -0.000001 -14.700000
v 3.800000 0.000000 0.300000
v 3.800000 0.099999 -14.700000
v 3.800000 0.100000 0.300000
v 12.500000 -0.000001 -14.700000
v 12.500000 0.000000 0.300000
v 12.500000 0.099999 -14.700000
v 12.500000 0.100000 0.300000
v 3.800000 -0.000001 -14.700000
v 3.800000 0.099999 -14.700000
v 12.500000 -0.000001 -14.700000
v 12.500000 0.099999 -14.700000
v 3.800000 0.000000 0.300000
v 3.800000 0.100000 0.300000
v 12.500000 0.000000 0.300000
v 12.500000 0.100000 0.300000
v 3.800000 -0.000001 -14.700000
v 12.500000 -0.000001 -14.700000
v 3.800000 0.000000 0.300000
v 12.500000 0.000000 0.300000
v 3.800000 0.099999 -14.700000
v 12.500000 0.099999 -14.700000
v 3.800000 0.100000 0.300000
v 12.500000 0.100000 0.300000
vn -1.0000 -0.0000 -0.0000
vn 1.0000 -0.0000 -0.0000
vn -0.0000 -0.0000 -1.0000
vn -0.0000 -0.0000 1.0000
vn -0.0000 -1.0000 -0.0000
vn -0.0000 1.0000 -0.0000
vt 0.978516 0.500000
s 0
usemtl palette
f 1/1/1 2/1/1 3/1/1
f 3/1/1 2/1/1 4/1/1
f 7/1/2 6/1/2 5/1/2
f 8/1/2 6/1/2 7/1/2
f 9/1/3 10/1/3 11/1/3
f 11/1/3 10/1/3 12/1/3
f 15/1/4 14/1/4 13/1/4
f 16/1/4 14/1/4 15/1/4
f 17/1/5 18/1/5 19/1/5
f 19/1/5 18/1/5 20/1/5
f 23/1/6 22/1/6 21/1/6
f 24/1/6 22/1/6 23/1/6
o Untitled.001
v 3.800000 -0.000001 -14.700000
v 3.800000 0.000000 0.300000
v 3.800000 0.099999 -14.700000
v 3.800000 0.100000 0.300000
v 12.500000 -0.000001 -14.700000
v 12.500000 0.000000 0.300000
v 12.500000 0.099999 -14.700000
v 12.500000 0.100000 0.300000
v 3.800000 -0.000001 -14.700000
v 3.800000 0.099999 -14.700000
v 12.500000 -0.000001 -14.700000
v 12.500000 0.099999 -14.700000
v 3.800000 0.000000 0.300000
v 3.800000 0.100000 0.300000
v 12.500000 0.000000 0.300000
v 12.500000 0.100000 0.300000
v 3.800000 -0.000001 -14.700000
v 12.500000 -0.000001 -14.700000
v 3.800000 0.000000 0.300000
v 12.500000 0.000000 0.300000
v 3.800000 0.099999 -14.700000
v 12.500000 0.099999 -14.700000
v 3.800000 0.100000 0.300000
v 12.500000 0.100000 0.300000
vn -1.0000 -0.0000 -0.0000
vn 1.0000 -0.0000 -0.0000
vn -0.0000 -0.0000 -1.0000
vn -0.0000 -0.0000 1.0000
vn -0.0000 -1.0000 -0.0000
vn -0.0000 1.0000 -0.0000
vt 0.978516 0.500000
s 0
usemtl palette.001
f 25/2/7 26/2/7 27/2/7
f 27/2/7 26/2/7 28/2/7
f 31/2/8 30/2/8 29/2/8
f 32/2/8 30/2/8 31/2/8
f 33/2/9 34/2/9 35/2/9
f 35/2/9 34/2/9 36/2/9
f 39/2/10 38/2/10 37/2/10
f 40/2/10 38/2/10 39/2/10
f 41/2/11 42/2/11 43/2/11
f 43/2/11 42/2/11 44/2/11
f 47/2/12 46/2/12 45/2/12
f 48/2/12 46/2/12 47/2/12
o Untitled.002
v -12.600000 -0.000001 -14.700000
v -12.600000 0.000000 0.300000
v -12.600000 0.099999 -14.700000
v -12.600000 0.100000 0.300000
v -3.900000 -0.000001 -14.700000
v -3.900000 0.000000 0.300000
v -3.900000 0.099999 -14.700000
v -3.900000 0.100000 0.300000
v -12.600000 -0.000001 -14.700000
v -12.600000 0.099999 -14.700000
v -3.900000 -0.000001 -14.700000
v -3.900000 0.099999 -14.700000
v -12.600000 0.000000 0.300000
v -12.600000 0.100000 0.300000
v -3.900000 0.000000 0.300000
v -3.900000 0.100000 0.300000
v -12.600000 -0.000001 -14.700000
v -3.900000 -0.000001 -14.700000
v -12.600000 0.000000 0.300000
v -3.900000 0.000000 0.300000
v -12.600000 0.099999 -14.700000
v -3.900000 0.099999 -14.700000
v -12.600000 0.100000 0.300000
v -3.900000 0.100000 0.300000
vn -1.0000 -0.0000 -0.0000
vn 1.0000 -0.0000 -0.0000
vn -0.0000 -0.0000 -1.0000
vn -0.0000 -0.0000 1.0000
vn -0.0000 -1.0000 -0.0000
vn -0.0000 1.0000 -0.0000
vt 0.978516 0.500000
s 0
usemtl palette.002
f 49/3/13 50/3/13 51/3/13
f 51/3/13 50/3/13 52/3/13
f 55/3/14 54/3/14 53/3/14
f 56/3/14 54/3/14 55/3/14
f 57/3/15 58/3/15 59/3/15
f 59/3/15 58/3/15 60/3/15
f 63/3/16 62/3/16 61/3/16
f 64/3/16 62/3/16 63/3/16
f 65/3/17 66/3/17 67/3/17
f 67/3/17 66/3/17 68/3/17
f 71/3/18 70/3/18 69/3/18
f 72/3/18 70/3/18 71/3/18
o Untitled.003
v -4.400000 -0.000001 -14.700000
v -4.400000 0.000000 0.300000
v -4.400000 0.099999 -14.700000
v -4.400000 0.100000 0.300000
v 4.300000 -0.000001 -14.700000
v 4.300000 0.000000 0.300000
v 4.300000 0.099999 -14.700000
v 4.300000 0.100000 0.300000
v -4.400000 -0.000001 -14.700000
v -4.400000 0.099999 -14.700000
v 4.300000 -0.000001 -14.700000
v 4.300000 0.099999 -14.700000
v -4.400000 0.000000 0.300000
v -4.400000 0.100000 0.300000
v 4.300000 0.000000 0.300000
v 4.300000 0.100000 0.300000
v -4.400000 -0.000001 -14.700000
v 4.300000 -0.000001 -14.700000
v -4.400000 0.000000 0.300000
v 4.300000 0.000000 0.300000
v -4.400000 0.099999 -14.700000
v 4.300000 0.099999 -14.700000
v -4.400000 0.100000 0.300000
v 4.300000 0.100000 0.300000
vn -1.0000 -0.0000 -0.0000
vn 1.0000 -0.0000 -0.0000
vn -0.0000 -0.0000 -1.0000
vn -0.0000 -0.0000 1.0000
vn -0.0000 -1.0000 -0.0000
vn -0.0000 1.0000 -0.0000
vt 0.978516 0.500000
s 0
usemtl palette.003
f 73/4/19 74/4/19 75/4/19
f 75/4/19 74/4/19 76/4/19
f 79/4/20 78/4/20 77/4/20
f 80/4/20 78/4/20 79/4/20
f 81/4/21 82/4/21 83/4/21
f 83/4/21 82/4/21 84/4/21
f 87/4/22 86/4/22 85/4/22
f 88/4/22 86/4/22 87/4/22
f 89/4/23 90/4/23 91/4/23
f 91/4/23 90/4/23 92/4/23
f 95/4/24 94/4/24 93/4/24
f 96/4/24 94/4/24 95/4/24
o Untitled.004
v 3.800000 -0.000000 -0.200000
v 3.800000 0.000001 14.800000
v 3.800000 0.100000 -0.200000
v 3.800000 0.100001 14.800000
v 12.500000 -0.000000 -0.200000
v 12.500000 0.000001 14.800000
v 12.500000 0.100000 -0.200000
v 12.500000 0.100001 14.800000
v 3.800000 -0.000000 -0.200000
v 3.800000 0.100000 -0.200000
v 12.500000 -0.000000 -0.200000
v 12.500000 0.100000 -0.200000
v 3.800000 0.000001 14.800000
v 3.800000 0.100001 14.800000
v 12.500000 0.000001 14.800000
v 12.500000 0.100001 14.800000
v 3.800000 -0.000000 -0.200000
v 12.500000 -0.000000 -0.200000
v 3.800000 0.000001 14.800000
v 12.500000 0.000001 14.800000
v 3.800000 0.100000 -0.200000
v 12.500000 0.100000 -0.200000
v 3.800000 0.100001 14.800000
v 12.500000 0.100001 14.800000
vn -1.0000 -0.0000 -0.0000
vn 1.0000 -0.0000 -0.0000
vn -0.0000 -0.0000 -1.0000
vn -0.0000 -0.0000 1.0000
vn -0.0000 -1.0000 -0.0000
vn -0.0000 1.0000 -0.0000
vt 0.978516 0.500000
s 0
usemtl palette.004
f 97/5/25 98/5/25 99/5/25
f 99/5/25 98/5/25 100/5/25
f 103/5/26 102/5/26 101/5/26
f 104/5/26 102/5/26 103/5/26
f 105/5/27 106/5/27 107/5/27
f 107/5/27 106/5/27 108/5/27
f 111/5/28 110/5/28 109/5/28
f 112/5/28 110/5/28 111/5/28
f 113/5/29 114/5/29 115/5/29
f 115/5/29 114/5/29 116/5/29
f 119/5/30 118/5/30 117/5/30
f 120/5/30 118/5/30 119/5/30
o Untitled.005
v -12.600000 -0.000000 -0.200000
v -12.600000 0.000001 14.800000
v -12.600000 0.100000 -0.200000
v -12.600000 0.100001 14.800000
v -3.900000 -0.000000 -0.200000
v -3.900000 0.000001 14.800000
v -3.900000 0.100000 -0.200000
v -3.900000 0.100001 14.800000
v -12.600000 -0.000000 -0.200000
v -12.600000 0.100000 -0.200000
v -3.900000 -0.000000 -0.200000
v -3.900000 0.100000 -0.200000
v -12.600000 0.000001 14.800000
v -12.600000 0.100001 14.800000
v -3.900000 0.000001 14.800000
v -3.900000 0.100001 14.800000
v -12.600000 -0.000000 -0.200000
v -3.900000 -0.000000 -0.200000
v -12.600000 0.000001 14.800000
v -3.900000 0.000001 14.800000
v -12.600000 0.100000 -0.200000
v -3.900000 0.100000 -0.200000
v -12.600000 0.100001 14.800000
v -3.900000 0.100001 14.800000
vn -1.0000 -0.0000 -0.0000
vn 1.0000 -0.0000 -0.0000
vn -0.0000 -0.0000 -1.0000
vn -0.0000 -0.0000 1.0000
vn -0.0000 -1.0000 -0.0000
vn -0.0000 1.0000 -0.0000
vt 0.978516 0.500000
s 0
usemtl palette.005
f 121/6/31 122/6/31 123/6/31
f 123/6/31 122/6/31 124/6/31
f 127/6/32 126/6/32 125/6/32
f 128/6/32 126/6/32 127/6/32
f 129/6/33 130/6/33 131/6/33
f 131/6/33 130/6/33 132/6/33
f 135/6/34 134/6/34 133/6/34
f 136/6/34 134/6/34 135/6/34
f 137/6/35 138/6/35 139/6/35
f 139/6/35 138/6/35 140/6/35
f 143/6/36 142/6/36 141/6/36
f 144/6/36 142/6/36 143/6/36
o Untitled.006
v -4.400000 -0.000000 -0.200000
v -4.400000 0.000001 14.800000
v -4.400000 0.100000 -0.200000
v -4.400000 0.100001 14.800000
v 4.300000 -0.000000 -0.200000
v 4.300000 0.000001 14.800000
v 4.300000 0.100000 -0.200000
v 4.300000 0.100001 14.800000
v -4.400000 -0.000000 -0.200000
v -4.400000 0.100000 -0.200000
v 4.300000 -0.000000 -0.200000
v 4.300000 0.100000 -0.200000
v -4.400000 0.000001 14.800000
v -4.400000 0.100001 14.800000
v 4.300000 0.000001 14.800000
v 4.300000 0.100001 14.800000
v -4.400000 -0.000000 -0.200000
v 4.300000 -0.000000 -0.200000
v -4.400000 0.000001 14.800000
v 4.300000 0.000001 14.800000
v -4.400000 0.100000 -0.200000
v 4.300000 0.100000 -0.200000
v -4.400000 0.100001 14.800000
v 4.300000 0.100001 14.800000
vn -1.0000 -0.0000 -0.0000
vn 1.0000 -0.0000 -0.0000
vn -0.0000 -0.0000 -1.0000
vn -0.0000 -0.0000 1.0000
vn -0.0000 -1.0000 -0.0000
vn -0.0000 1.0000 -0.0000
vt 0.978516 0.500000
s 0
usemtl palette.006
f 145/7/37 146/7/37 147/7/37
f 147/7/37 146/7/37 148/7/37
f 151/7/38 150/7/38 149/7/38
f 152/7/38 150/7/38 151/7/38
f 153/7/39 154/7/39 155/7/39
f 155/7/39 154/7/39 156/7/39
f 159/7/40 158/7/40 157/7/40
f 160/7/40 158/7/40 159/7/40
f 161/7/41 162/7/41 163/7/41
f 163/7/41 162/7/41 164/7/41
f 167/7/42 166/7/42 165/7/42
f 168/7/42 166/7/42 167/7/42
