# MagicaVoxel @ Ephtracy

# group
o 

# material
mtllib barrier1-2.mtl
usemtl palette

# normals
vn -1 0 0
vn 1 0 0
vn 0 0 1
vn 0 0 -1
vn 0 -1 0
vn 0 1 0

# texcoords
vt 0.978516 0.5
vt 0.982422 0.5
vt 0.986328 0.5

# verts
v -9.1 0 8.6
v -9.1 0 7.1
v -9.1 0 5.3
v -9.1 0 0.400001
v -9.1 0 -1.6
v -9.1 0 -3.1
v -9.1 0.1 8.6
v -9.1 0.1 7.1
v -9.1 0.1 5.3
v -9.1 0.1 0.400001
v -9.1 0.1 -1.6
v -9.1 0.1 -3.1
v -9.1 0.2 8.6
v -9.1 0.2 7.1
v -9.1 0.2 5.3
v -9.1 0.2 0.400001
v -9.1 0.2 -1.6
v -9.1 0.2 -3.1
v -8.9 0.2 8.7
v -8.9 0.2 8.6
v -8.9 0.2 7.1
v -8.9 0.2 5.3
v -8.9 0.2 0.400001
v -8.9 0.2 -1.6
v -8.9 0.2 -3.1
v -8.9 0.3 7.1
v -8.9 0.3 5.3
v -8.9 0.3 0.400001
v -8.9 0.3 -1.6
v -8.9 1.7 8.7
v -8.9 1.7 -3.1
v -8.8 0.2 -3.1
v -8.8 0.2 -3.2
v -8.8 0.3 8.8
v -8.8 0.3 8.7
v -8.8 1.7 8.8
v -8.8 1.7 8.7
v -8.8 1.7 -3.1
v -8.8 1.7 -3.2
v -8.8 1.8 8.7
v -8.8 1.8 -3.1
v -8.7 1.7 8.8
v -8.7 1.7 8.7
v -8.7 1.7 -3.1
v -8.7 1.7 -3.2
v -8.7 1.8 8.8
v -8.7 1.8 8.7
v -8.7 1.8 -3.1
v -8.7 1.8 -3.2
v -8.7 1.9 8.7
v -8.7 1.9 -3.1
v -8.6 1.8 8.8
v -8.6 1.8 8.7
v -8.6 1.8 -3.1
v -8.6 1.8 -3.2
v -8.6 1.9 8.8
v -8.6 1.9 8.7
v -8.6 1.9 -3.1
v -8.6 1.9 -3.2
v -8.6 2 8.7
v -8.6 2 -3.1
v -8.5 1.9 8.8
v -8.5 1.9 8.7
v -8.5 1.9 -3.1
v -8.5 1.9 -3.2
v -8.5 2 8.8
v -8.5 2 8.7
v -8.5 2 -3.1
v -8.5 2 -3.2
v -8.5 3.2 8.7
v -8.5 3.2 -3.1
v -8.4 2 8.8
v -8.4 2 8.7
v -8.4 2 -3.1
v -8.4 2 -3.2
v -8.4 3.2 8.8
v -8.4 3.2 8.7
v -8.4 3.2 -3.1
v -8.4 3.2 -3.2
v -8.4 3.3 8.7
v -8.4 3.3 -3.1
v -8 0.2 7.1
v -8 0.2 5.3
v -8 0.2 0.400001
v -8 0.2 -1.6
v -8 0.3 7.1
v -8 0.3 5.3
v -8 0.3 0.400001
v -8 0.3 -1.6
v -7.9 0.2 7.1
v -7.9 0.2 5.3
v -7.9 0.2 0.400001
v -7.9 0.2 -1.6
v -7.9 0.3 7.1
v -7.9 0.3 5.3
v -7.9 0.3 0.400001
v -7.9 0.3 -1.6
v -7.5 1.9 8.8
v -7.5 1.9 8.7
v -7.5 2 -3.1
v -7.5 2 -3.2
v -7.5 3.2 8.8
v -7.5 3.2 8.7
v -7.5 3.2 -3.1
v -7.5 3.2 -3.2
v -7.5 3.3 8.7
v -7.5 3.3 -3.1
v -7.4 1.9 -3.1
v -7.4 1.9 -3.2
v -7.4 2 8.7
v -7.4 2 -3.1
v -7.4 2 -3.2
v -7.4 3.2 8.7
v -7.4 3.2 -3.1
v -7.3 1.8 8.8
v -7.3 1.8 8.7
v -7.3 1.8 -3.1
v -7.3 1.8 -3.2
v -7.3 1.9 8.8
v -7.3 1.9 8.7
v -7.3 1.9 -3.1
v -7.3 1.9 -3.2
v -7.3 2 8.7
v -7.3 2 -3.1
v -7.2 1.7 8.8
v -7.2 1.7 8.7
v -7.2 1.7 -3.1
v -7.2 1.7 -3.2
v -7.2 1.8 8.8
v -7.2 1.8 8.7
v -7.2 1.8 -3.1
v -7.2 1.8 -3.2
v -7.2 1.9 8.7
v -7.2 1.9 -3.1
v -7.1 0.2 -3.1
v -7.1 0.2 -3.2
v -7.1 0.3 8.8
v -7.1 0.3 8.7
v -7.1 1.7 8.8
v -7.1 1.7 8.7
v -7.1 1.7 -3.1
v -7.1 1.7 -3.2
v -7.1 1.8 8.7
v -7.1 1.8 -3.1
v -7 0.2 8.7
v -7 0.2 8.6
v -7 0.2 7.1
v -7 0.2 5.3
v -7 0.2 0.400001
v -7 0.2 -1.6
v -7 0.2 -3.1
v -7 0.3 7.1
v -7 0.3 5.3
v -7 0.3 0.400001
v -7 0.3 -1.6
v -7 1.7 8.7
v -7 1.7 -3.1
v -6.8 0 8.6
v -6.8 0 7.1
v -6.8 0 5.3
v -6.8 0 0.400001
v -6.8 0 -1.6
v -6.8 0 -3.1
v -6.8 0.1 8.6
v -6.8 0.1 7.1
v -6.8 0.1 5.3
v -6.8 0.1 0.400001
v -6.8 0.1 -1.6
v -6.8 0.1 -3.1
v -6.8 0.2 8.6
v -6.8 0.2 7.1
v -6.8 0.2 5.3
v -6.8 0.2 0.400001
v -6.8 0.2 -1.6
v -6.8 0.2 -3.1
v -8.8 0.3 8.8
v -8.8 1.7 8.8
v -8.7 1.7 8.8
v -8.7 1.8 8.8
v -8.6 1.8 8.8
v -8.6 1.9 8.8
v -8.5 1.9 8.8
v -8.5 2 8.8
v -8.4 2 8.8
v -8.4 3.2 8.8
v -8 0.3 8.8
v -8 3.2 8.8
v -7.9 0.3 8.8
v -7.9 3.2 8.8
v -7.5 1.9 8.8
v -7.5 3.2 8.8
v -7.3 1.8 8.8
v -7.3 1.9 8.8
v -7.2 1.7 8.8
v -7.2 1.8 8.8
v -7.1 0.3 8.8
v -7.1 1.7 8.8
v -8.9 0.2 8.7
v -8.9 1.7 8.7
v -8.8 0.3 8.7
v -8.8 1.7 8.7
v -8.8 1.8 8.7
v -8.7 1.7 8.7
v -8.7 1.8 8.7
v -8.7 1.9 8.7
v -8.6 1.8 8.7
v -8.6 1.9 8.7
v -8.6 2 8.7
v -8.5 1.9 8.7
v -8.5 2 8.7
v -8.5 3.2 8.7
v -8.4 2 8.7
v -8.4 3.2 8.7
v -8.4 3.3 8.7
v -8 0.2 8.7
v -8 0.3 8.7
v -8 3.2 8.7
v -8 3.3 8.7
v -7.9 0.2 8.7
v -7.9 0.3 8.7
v -7.9 3.2 8.7
v -7.9 3.3 8.7
v -7.5 1.9 8.7
v -7.5 3.2 8.7
v -7.5 3.3 8.7
v -7.4 2 8.7
v -7.4 3.2 8.7
v -7.3 1.8 8.7
v -7.3 1.9 8.7
v -7.3 2 8.7
v -7.2 1.7 8.7
v -7.2 1.8 8.7
v -7.2 1.9 8.7
v -7.1 0.3 8.7
v -7.1 1.7 8.7
v -7.1 1.8 8.7
v -7 0.2 8.7
v -7 1.7 8.7
v -9.1 0 8.6
v -9.1 0.1 8.6
v -9.1 0.2 8.6
v -8.9 0.2 8.6
v -8 0.2 8.6
v -7.9 0.2 8.6
v -7 0.2 8.6
v -6.8 0 8.6
v -6.8 0.1 8.6
v -6.8 0.2 8.6
v -9.1 0 5.3
v -9.1 0.1 5.3
v -9.1 0.2 5.3
v -8.9 0.2 5.3
v -8.9 0.3 5.3
v -8.8 0.1 5.3
v -8.8 0.2 5.3
v -8 0.2 5.3
v -8 0.3 5.3
v -7.9 0.2 5.3
v -7.9 0.3 5.3
v -7.1 0.1 5.3
v -7.1 0.2 5.3
v -7 0.2 5.3
v -7 0.3 5.3
v -6.8 0 5.3
v -6.8 0.1 5.3
v -6.8 0.2 5.3
v -9.1 0 -1.6
v -9.1 0.1 -1.6
v -9.1 0.2 -1.6
v -8.9 0.2 -1.6
v -8.9 0.3 -1.6
v -8.8 0.1 -1.6
v -8.8 0.2 -1.6
v -8 0.2 -1.6
v -8 0.3 -1.6
v -7.9 0.2 -1.6
v -7.9 0.3 -1.6
v -7.1 0.1 -1.6
v -7.1 0.2 -1.6
v -7 0.2 -1.6
v -7 0.3 -1.6
v -6.8 0 -1.6
v -6.8 0.1 -1.6
v -6.8 0.2 -1.6
v -9.1 0 7.1
v -9.1 0.1 7.1
v -9.1 0.2 7.1
v -8.9 0.2 7.1
v -8.9 0.3 7.1
v -8 0.2 7.1
v -8 0.3 7.1
v -7.9 0.2 7.1
v -7.9 0.3 7.1
v -7 0.2 7.1
v -7 0.3 7.1
v -6.8 0 7.1
v -6.8 0.1 7.1
v -6.8 0.2 7.1
v -9.1 0 0.400001
v -9.1 0.1 0.400001
v -9.1 0.2 0.400001
v -8.9 0.2 0.400001
v -8.9 0.3 0.400001
v -8.8 0.1 0.400001
v -8.8 0.2 0.400001
v -8 0.2 0.400001
v -8 0.3 0.400001
v -7.9 0.2 0.400001
v -7.9 0.3 0.400001
v -7.1 0.1 0.400001
v -7.1 0.2 0.400001
v -7 0.2 0.400001
v -7 0.3 0.400001
v -6.8 0 0.400001
v -6.8 0.1 0.400001
v -6.8 0.2 0.400001
v -9.1 0 -3.1
v -9.1 0.1 -3.1
v -9.1 0.2 -3.1
v -8.9 0.2 -3.1
v -8.9 1.7 -3.1
v -8.8 0.1 -3.1
v -8.8 0.2 -3.1
v -8.8 1.7 -3.1
v -8.8 1.8 -3.1
v -8.7 1.7 -3.1
v -8.7 1.8 -3.1
v -8.7 1.9 -3.1
v -8.6 1.8 -3.1
v -8.6 1.9 -3.1
v -8.6 2 -3.1
v -8.5 1.9 -3.1
v -8.5 2 -3.1
v -8.5 3.2 -3.1
v -8.4 2 -3.1
v -8.4 3.2 -3.1
v -8.4 3.3 -3.1
v -8 0.2 -3.1
v -8 3.2 -3.1
v -8 3.3 -3.1
v -7.9 0.2 -3.1
v -7.9 3.2 -3.1
v -7.9 3.3 -3.1
v -7.5 2 -3.1
v -7.5 3.2 -3.1
v -7.5 3.3 -3.1
v -7.4 1.9 -3.1
v -7.4 2 -3.1
v -7.4 3.2 -3.1
v -7.3 1.8 -3.1
v -7.3 1.9 -3.1
v -7.3 2 -3.1
v -7.2 1.7 -3.1
v -7.2 1.8 -3.1
v -7.2 1.9 -3.1
v -7.1 0.1 -3.1
v -7.1 0.2 -3.1
v -7.1 1.7 -3.1
v -7.1 1.8 -3.1
v -7 0.2 -3.1
v -7 1.7 -3.1
v -6.8 0 -3.1
v -6.8 0.1 -3.1
v -6.8 0.2 -3.1
v -8.8 0.2 -3.2
v -8.8 1.7 -3.2
v -8.7 1.7 -3.2
v -8.7 1.8 -3.2
v -8.6 1.8 -3.2
v -8.6 1.9 -3.2
v -8.5 1.9 -3.2
v -8.5 2 -3.2
v -8.4 2 -3.2
v -8.4 3.2 -3.2
v -8 0.2 -3.2
v -8 3.2 -3.2
v -7.9 0.2 -3.2
v -7.9 3.2 -3.2
v -7.5 2 -3.2
v -7.5 3.2 -3.2
v -7.4 1.9 -3.2
v -7.4 2 -3.2
v -7.3 1.8 -3.2
v -7.3 1.9 -3.2
v -7.2 1.7 -3.2
v -7.2 1.8 -3.2
v -7.1 0.2 -3.2
v -7.1 1.7 -3.2
v -9.1 0 8.6
v -6.8 0 8.6
v -9.1 0 7.1
v -6.8 0 7.1
v -9.1 0 5.3
v -6.8 0 5.3
v -9.1 0 0.400001
v -6.8 0 0.400001
v -9.1 0 -1.6
v -6.8 0 -1.6
v -9.1 0 -3.1
v -6.8 0 -3.1
v -8.9 0.2 8.7
v -8 0.2 8.7
v -7.9 0.2 8.7
v -7 0.2 8.7
v -8.9 0.2 8.6
v -8 0.2 8.6
v -7.9 0.2 8.6
v -7 0.2 8.6
v -8 0.2 7.1
v -7.9 0.2 7.1
v -8 0.2 5.3
v -7.9 0.2 5.3
v -8 0.2 0.400001
v -7.9 0.2 0.400001
v -8 0.2 -1.6
v -7.9 0.2 -1.6
v -8.8 0.2 -3.1
v -8 0.2 -3.1
v -7.9 0.2 -3.1
v -7.1 0.2 -3.1
v -8.8 0.2 -3.2
v -8 0.2 -3.2
v -7.9 0.2 -3.2
v -7.1 0.2 -3.2
v -8.8 0.3 8.8
v -8 0.3 8.8
v -7.9 0.3 8.8
v -7.1 0.3 8.8
v -8.8 0.3 8.7
v -8 0.3 8.7
v -7.9 0.3 8.7
v -7.1 0.3 8.7
v -8.9 0.3 7.1
v -8 0.3 7.1
v -7.9 0.3 7.1
v -7 0.3 7.1
v -8.9 0.3 5.3
v -8 0.3 5.3
v -7.9 0.3 5.3
v -7 0.3 5.3
v -8.9 0.3 0.400001
v -8 0.3 0.400001
v -7.9 0.3 0.400001
v -7 0.3 0.400001
v -8.9 0.3 -1.6
v -8 0.3 -1.6
v -7.9 0.3 -1.6
v -7 0.3 -1.6
v -9.1 0.2 8.6
v -8.9 0.2 8.6
v -7 0.2 8.6
v -6.8 0.2 8.6
v -9.1 0.2 7.1
v -8.9 0.2 7.1
v -7 0.2 7.1
v -6.8 0.2 7.1
v -9.1 0.2 5.3
v -8.9 0.2 5.3
v -7 0.2 5.3
v -6.8 0.2 5.3
v -9.1 0.2 0.400001
v -8.9 0.2 0.400001
v -7 0.2 0.400001
v -6.8 0.2 0.400001
v -9.1 0.2 -1.6
v -8.9 0.2 -1.6
v -7 0.2 -1.6
v -6.8 0.2 -1.6
v -9.1 0.2 -3.1
v -8.9 0.2 -3.1
v -7 0.2 -3.1
v -6.8 0.2 -3.1
v -8.8 1.7 8.8
v -8.7 1.7 8.8
v -7.2 1.7 8.8
v -7.1 1.7 8.8
v -8.9 1.7 8.7
v -8.8 1.7 8.7
v -8.7 1.7 8.7
v -7.2 1.7 8.7
v -7.1 1.7 8.7
v -7 1.7 8.7
v -8.9 1.7 -3.1
v -8.8 1.7 -3.1
v -8.7 1.7 -3.1
v -7.2 1.7 -3.1
v -7.1 1.7 -3.1
v -7 1.7 -3.1
v -8.8 1.7 -3.2
v -8.7 1.7 -3.2
v -7.2 1.7 -3.2
v -7.1 1.7 -3.2
v -8.7 1.8 8.8
v -8.6 1.8 8.8
v -7.3 1.8 8.8
v -7.2 1.8 8.8
v -8.8 1.8 8.7
v -8.7 1.8 8.7
v -8.6 1.8 8.7
v -7.3 1.8 8.7
v -7.2 1.8 8.7
v -7.1 1.8 8.7
v -8.8 1.8 -3.1
v -8.7 1.8 -3.1
v -8.6 1.8 -3.1
v -7.3 1.8 -3.1
v -7.2 1.8 -3.1
v -7.1 1.8 -3.1
v -8.7 1.8 -3.2
v -8.6 1.8 -3.2
v -7.3 1.8 -3.2
v -7.2 1.8 -3.2
v -8.6 1.9 8.8
v -8.5 1.9 8.8
v -7.5 1.9 8.8
v -7.3 1.9 8.8
v -8.7 1.9 8.7
v -8.6 1.9 8.7
v -8.5 1.9 8.7
v -7.5 1.9 8.7
v -7.3 1.9 8.7
v -7.2 1.9 8.7
v -8.7 1.9 -3.1
v -8.6 1.9 -3.1
v -8.5 1.9 -3.1
v -7.4 1.9 -3.1
v -7.3 1.9 -3.1
v -7.2 1.9 -3.1
v -8.6 1.9 -3.2
v -8.5 1.9 -3.2
v -7.4 1.9 -3.2
v -7.3 1.9 -3.2
v -8.5 2 8.8
v -8.4 2 8.8
v -8.6 2 8.7
v -8.5 2 8.7
v -8.4 2 8.7
v -7.4 2 8.7
v -7.3 2 8.7
v -8.6 2 -3.1
v -8.5 2 -3.1
v -8.4 2 -3.1
v -7.5 2 -3.1
v -7.4 2 -3.1
v -7.3 2 -3.1
v -8.5 2 -3.2
v -8.4 2 -3.2
v -7.5 2 -3.2
v -7.4 2 -3.2
v -8.4 3.2 8.8
v -8 3.2 8.8
v -7.9 3.2 8.8
v -7.5 3.2 8.8
v -8.5 3.2 8.7
v -8.4 3.2 8.7
v -8 3.2 8.7
v -7.9 3.2 8.7
v -7.5 3.2 8.7
v -7.4 3.2 8.7
v -8.5 3.2 -3.1
v -8.4 3.2 -3.1
v -8 3.2 -3.1
v -7.9 3.2 -3.1
v -7.5 3.2 -3.1
v -7.4 3.2 -3.1
v -8.4 3.2 -3.2
v -8 3.2 -3.2
v -7.9 3.2 -3.2
v -7.5 3.2 -3.2
v -8.4 3.3 8.7
v -8 3.3 8.7
v -7.9 3.3 8.7
v -7.5 3.3 8.7
v -8.4 3.3 -3.1
v -8 3.3 -3.1
v -7.9 3.3 -3.1
v -7.5 3.3 -3.1

# faces
f 7/1/1 2/1/1 1/1/1
f 8/1/1 2/1/1 7/1/1
f 9/1/1 4/1/1 3/1/1
f 10/1/1 4/1/1 9/1/1
f 11/1/1 6/1/1 5/1/1
f 12/1/1 6/1/1 11/1/1
f 13/3/1 8/3/1 7/3/1
f 14/3/1 8/3/1 13/3/1
f 15/3/1 10/3/1 9/3/1
f 16/3/1 10/3/1 15/3/1
f 17/3/1 12/3/1 11/3/1
f 18/3/1 12/3/1 17/3/1
f 26/3/1 20/3/1 19/3/1
f 26/3/1 21/3/1 20/3/1
f 27/3/1 23/3/1 22/3/1
f 28/3/1 23/3/1 27/3/1
f 29/3/1 25/3/1 24/3/1
f 30/3/1 28/3/1 27/3/1
f 30/3/1 29/3/1 28/3/1
f 30/3/1 26/3/1 19/3/1
f 30/3/1 27/3/1 26/3/1
f 31/3/1 25/3/1 29/3/1
f 31/3/1 29/3/1 30/3/1
f 36/3/1 35/3/1 34/3/1
f 37/3/1 35/3/1 36/3/1
f 38/3/1 33/3/1 32/3/1
f 39/3/1 33/3/1 38/3/1
f 40/3/1 38/3/1 37/3/1
f 41/3/1 38/3/1 40/3/1
f 46/3/1 43/3/1 42/3/1
f 47/3/1 43/3/1 46/3/1
f 48/3/1 45/3/1 44/3/1
f 49/3/1 45/3/1 48/3/1
f 50/3/1 48/3/1 47/3/1
f 51/3/1 48/3/1 50/3/1
f 56/3/1 53/3/1 52/3/1
f 57/3/1 53/3/1 56/3/1
f 58/3/1 55/3/1 54/3/1
f 59/3/1 55/3/1 58/3/1
f 60/3/1 58/3/1 57/3/1
f 61/3/1 58/3/1 60/3/1
f 66/3/1 63/3/1 62/3/1
f 67/3/1 63/3/1 66/3/1
f 68/3/1 65/3/1 64/3/1
f 69/3/1 65/3/1 68/3/1
f 70/3/1 68/3/1 67/3/1
f 71/3/1 68/3/1 70/3/1
f 76/3/1 73/3/1 72/3/1
f 77/3/1 73/3/1 76/3/1
f 78/3/1 75/3/1 74/3/1
f 79/3/1 75/3/1 78/3/1
f 80/3/1 78/3/1 77/3/1
f 81/3/1 78/3/1 80/3/1
f 86/1/1 83/1/1 82/1/1
f 87/1/1 83/1/1 86/1/1
f 88/1/1 85/1/1 84/1/1
f 89/1/1 85/1/1 88/1/1
f 90/1/2 91/1/2 94/1/2
f 94/1/2 91/1/2 95/1/2
f 92/1/2 93/1/2 96/1/2
f 96/1/2 93/1/2 97/1/2
f 98/3/2 99/3/2 102/3/2
f 102/3/2 99/3/2 103/3/2
f 100/3/2 101/3/2 104/3/2
f 104/3/2 101/3/2 105/3/2
f 103/3/2 104/3/2 106/3/2
f 106/3/2 104/3/2 107/3/2
f 108/3/2 109/3/2 111/3/2
f 111/3/2 109/3/2 112/3/2
f 110/3/2 111/3/2 113/3/2
f 113/3/2 111/3/2 114/3/2
f 115/3/2 116/3/2 119/3/2
f 119/3/2 116/3/2 120/3/2
f 117/3/2 118/3/2 121/3/2
f 121/3/2 118/3/2 122/3/2
f 120/3/2 121/3/2 123/3/2
f 123/3/2 121/3/2 124/3/2
f 125/3/2 126/3/2 129/3/2
f 129/3/2 126/3/2 130/3/2
f 127/3/2 128/3/2 131/3/2
f 131/3/2 128/3/2 132/3/2
f 130/3/2 131/3/2 133/3/2
f 133/3/2 131/3/2 134/3/2
f 137/3/2 138/3/2 139/3/2
f 139/3/2 138/3/2 140/3/2
f 135/3/2 136/3/2 141/3/2
f 141/3/2 136/3/2 142/3/2
f 140/3/2 141/3/2 143/3/2
f 143/3/2 141/3/2 144/3/2
f 145/3/2 146/3/2 152/3/2
f 146/3/2 147/3/2 152/3/2
f 148/3/2 149/3/2 153/3/2
f 153/3/2 149/3/2 154/3/2
f 150/3/2 151/3/2 155/3/2
f 153/3/2 154/3/2 156/3/2
f 154/3/2 155/3/2 156/3/2
f 145/3/2 152/3/2 156/3/2
f 152/3/2 153/3/2 156/3/2
f 155/3/2 151/3/2 157/3/2
f 156/3/2 155/3/2 157/3/2
f 158/1/2 159/1/2 164/1/2
f 164/1/2 159/1/2 165/1/2
f 160/1/2 161/1/2 166/1/2
f 166/1/2 161/1/2 167/1/2
f 162/1/2 163/1/2 168/1/2
f 168/1/2 163/1/2 169/1/2
f 164/3/2 165/3/2 170/3/2
f 170/3/2 165/3/2 171/3/2
f 166/3/2 167/3/2 172/3/2
f 172/3/2 167/3/2 173/3/2
f 168/3/2 169/3/2 174/3/2
f 174/3/2 169/3/2 175/3/2
f 178/3/3 177/3/3 176/3/3
f 180/3/3 179/3/3 178/3/3
f 182/3/3 181/3/3 180/3/3
f 184/3/3 183/3/3 182/3/3
f 186/3/3 178/3/3 176/3/3
f 186/3/3 185/3/3 184/3/3
f 186/3/3 184/3/3 182/3/3
f 186/3/3 182/3/3 180/3/3
f 186/3/3 180/3/3 178/3/3
f 187/3/3 185/3/3 186/3/3
f 188/1/3 187/1/3 186/1/3
f 189/1/3 187/1/3 188/1/3
f 190/3/3 189/3/3 188/3/3
f 191/3/3 189/3/3 190/3/3
f 192/3/3 190/3/3 188/3/3
f 193/3/3 190/3/3 192/3/3
f 194/3/3 192/3/3 188/3/3
f 195/3/3 192/3/3 194/3/3
f 196/3/3 194/3/3 188/3/3
f 197/3/3 194/3/3 196/3/3
f 200/3/3 199/3/3 198/3/3
f 201/3/3 199/3/3 200/3/3
f 203/3/3 202/3/3 201/3/3
f 204/3/3 202/3/3 203/3/3
f 206/3/3 205/3/3 204/3/3
f 207/3/3 205/3/3 206/3/3
f 209/3/3 208/3/3 207/3/3
f 210/3/3 208/3/3 209/3/3
f 212/3/3 211/3/3 210/3/3
f 213/3/3 211/3/3 212/3/3
f 215/3/3 200/3/3 198/3/3
f 216/3/3 200/3/3 215/3/3
f 217/3/3 214/3/3 213/3/3
f 218/3/3 214/3/3 217/3/3
f 219/1/3 216/1/3 215/1/3
f 220/1/3 216/1/3 219/1/3
f 221/1/3 218/1/3 217/1/3
f 222/1/3 218/1/3 221/1/3
f 224/3/3 222/3/3 221/3/3
f 225/3/3 222/3/3 224/3/3
f 226/3/3 224/3/3 223/3/3
f 227/3/3 224/3/3 226/3/3
f 229/3/3 226/3/3 223/3/3
f 230/3/3 226/3/3 229/3/3
f 232/3/3 229/3/3 228/3/3
f 233/3/3 229/3/3 232/3/3
f 234/3/3 220/3/3 219/3/3
f 235/3/3 232/3/3 231/3/3
f 236/3/3 232/3/3 235/3/3
f 237/3/3 234/3/3 219/3/3
f 237/3/3 235/3/3 234/3/3
f 238/3/3 235/3/3 237/3/3
f 242/3/3 241/3/3 240/3/3
f 243/3/3 242/3/3 240/3/3
f 244/3/3 243/3/3 240/3/3
f 245/3/3 244/3/3 240/3/3
f 246/1/3 240/1/3 239/1/3
f 247/3/3 245/3/3 240/3/3
f 247/1/3 240/1/3 246/1/3
f 248/3/3 245/3/3 247/3/3
f 252/3/3 251/3/3 250/3/3
f 254/1/3 250/1/3 249/1/3
f 254/3/3 253/3/3 252/3/3
f 254/3/3 252/3/3 250/3/3
f 255/3/3 253/3/3 254/3/3
f 256/2/3 255/2/3 254/2/3
f 256/3/3 253/3/3 255/3/3
f 257/3/3 253/3/3 256/3/3
f 258/2/3 256/2/3 254/2/3
f 260/1/3 254/1/3 249/1/3
f 260/2/3 258/2/3 254/2/3
f 261/3/3 259/3/3 258/3/3
f 261/2/3 258/2/3 260/2/3
f 262/3/3 261/3/3 260/3/3
f 262/3/3 259/3/3 261/3/3
f 263/3/3 259/3/3 262/3/3
f 264/1/3 260/1/3 249/1/3
f 265/3/3 262/3/3 260/3/3
f 265/1/3 260/1/3 264/1/3
f 266/3/3 262/3/3 265/3/3
f 270/3/3 269/3/3 268/3/3
f 272/1/3 268/1/3 267/1/3
f 272/3/3 271/3/3 270/3/3
f 272/3/3 270/3/3 268/3/3
f 273/3/3 271/3/3 272/3/3
f 274/2/3 273/2/3 272/2/3
f 274/3/3 271/3/3 273/3/3
f 275/3/3 271/3/3 274/3/3
f 276/2/3 274/2/3 272/2/3
f 278/1/3 272/1/3 267/1/3
f 278/2/3 276/2/3 272/2/3
f 279/3/3 277/3/3 276/3/3
f 279/2/3 276/2/3 278/2/3
f 280/3/3 279/3/3 278/3/3
f 280/3/3 277/3/3 279/3/3
f 281/3/3 277/3/3 280/3/3
f 282/1/3 278/1/3 267/1/3
f 283/3/3 280/3/3 278/3/3
f 283/1/3 278/1/3 282/1/3
f 284/3/3 280/3/3 283/3/3
f 286/3/4 287/3/4 288/3/4
f 286/3/4 288/3/4 290/3/4
f 288/3/4 289/3/4 290/3/4
f 290/3/4 289/3/4 291/3/4
f 286/3/4 290/3/4 292/3/4
f 286/3/4 292/3/4 294/3/4
f 292/3/4 293/3/4 294/3/4
f 294/3/4 293/3/4 295/3/4
f 285/1/4 286/1/4 296/1/4
f 286/3/4 294/3/4 297/3/4
f 296/1/4 286/1/4 297/1/4
f 297/3/4 294/3/4 298/3/4
f 300/3/4 301/3/4 302/3/4
f 299/1/4 300/1/4 304/1/4
f 302/3/4 303/3/4 304/3/4
f 300/3/4 302/3/4 304/3/4
f 304/3/4 303/3/4 305/3/4
f 304/2/4 305/2/4 306/2/4
f 305/3/4 303/3/4 306/3/4
f 306/3/4 303/3/4 307/3/4
f 304/2/4 306/2/4 308/2/4
f 299/1/4 304/1/4 310/1/4
f 304/2/4 308/2/4 310/2/4
f 308/3/4 309/3/4 311/3/4
f 310/2/4 308/2/4 311/2/4
f 310/3/4 311/3/4 312/3/4
f 311/3/4 309/3/4 312/3/4
f 312/3/4 309/3/4 313/3/4
f 299/1/4 310/1/4 314/1/4
f 310/3/4 312/3/4 315/3/4
f 314/1/4 310/1/4 315/1/4
f 315/3/4 312/3/4 316/3/4
f 318/3/4 319/3/4 320/3/4
f 317/1/4 318/1/4 322/1/4
f 320/3/4 321/3/4 322/3/4
f 318/3/4 320/3/4 322/3/4
f 322/3/4 321/3/4 323/3/4
f 323/3/4 321/3/4 324/3/4
f 324/3/4 325/3/4 326/3/4
f 326/3/4 325/3/4 327/3/4
f 327/3/4 328/3/4 329/3/4
f 329/3/4 328/3/4 330/3/4
f 330/3/4 331/3/4 332/3/4
f 332/3/4 331/3/4 333/3/4
f 333/3/4 334/3/4 335/3/4
f 335/3/4 334/3/4 336/3/4
f 322/2/4 323/2/4 338/2/4
f 336/3/4 337/3/4 339/3/4
f 339/3/4 337/3/4 340/3/4
f 322/2/4 338/2/4 341/2/4
f 339/1/4 340/1/4 342/1/4
f 342/1/4 340/1/4 343/1/4
f 342/3/4 343/3/4 345/3/4
f 345/3/4 343/3/4 346/3/4
f 344/3/4 345/3/4 348/3/4
f 348/3/4 345/3/4 349/3/4
f 347/3/4 348/3/4 351/3/4
f 351/3/4 348/3/4 352/3/4
f 350/3/4 351/3/4 354/3/4
f 354/3/4 351/3/4 355/3/4
f 317/1/4 322/1/4 356/1/4
f 322/2/4 341/2/4 356/2/4
f 356/2/4 341/2/4 357/2/4
f 353/3/4 354/3/4 358/3/4
f 358/3/4 354/3/4 359/3/4
f 356/3/4 357/3/4 360/3/4
f 357/3/4 358/3/4 360/3/4
f 360/3/4 358/3/4 361/3/4
f 317/1/4 356/1/4 362/1/4
f 356/3/4 360/3/4 363/3/4
f 362/1/4 356/1/4 363/1/4
f 363/3/4 360/3/4 364/3/4
f 365/3/4 366/3/4 367/3/4
f 367/3/4 368/3/4 369/3/4
f 369/3/4 370/3/4 371/3/4
f 371/3/4 372/3/4 373/3/4
f 365/3/4 367/3/4 375/3/4
f 373/3/4 374/3/4 375/3/4
f 371/3/4 373/3/4 375/3/4
f 369/3/4 371/3/4 375/3/4
f 367/3/4 369/3/4 375/3/4
f 375/3/4 374/3/4 376/3/4
f 375/1/4 376/1/4 377/1/4
f 377/1/4 376/1/4 378/1/4
f 377/3/4 378/3/4 379/3/4
f 379/3/4 378/3/4 380/3/4
f 377/3/4 379/3/4 381/3/4
f 381/3/4 379/3/4 382/3/4
f 377/3/4 381/3/4 383/3/4
f 383/3/4 381/3/4 384/3/4
f 377/3/4 383/3/4 385/3/4
f 385/3/4 383/3/4 386/3/4
f 377/3/4 385/3/4 387/3/4
f 387/3/4 385/3/4 388/3/4
f 391/1/5 390/1/5 389/1/5
f 392/1/5 390/1/5 391/1/5
f 395/1/5 394/1/5 393/1/5
f 396/1/5 394/1/5 395/1/5
f 399/1/5 398/1/5 397/1/5
f 400/1/5 398/1/5 399/1/5
f 405/3/5 402/3/5 401/3/5
f 406/1/5 403/1/5 402/1/5
f 406/3/5 402/3/5 405/3/5
f 407/3/5 404/3/5 403/3/5
f 407/1/5 403/1/5 406/1/5
f 408/3/5 404/3/5 407/3/5
f 411/1/5 410/1/5 409/1/5
f 412/1/5 410/1/5 411/1/5
f 415/1/5 414/1/5 413/1/5
f 416/1/5 414/1/5 415/1/5
f 421/3/5 418/3/5 417/3/5
f 422/1/5 419/1/5 418/1/5
f 422/3/5 418/3/5 421/3/5
f 423/3/5 420/3/5 419/3/5
f 423/1/5 419/1/5 422/1/5
f 424/3/5 420/3/5 423/3/5
f 429/3/5 426/3/5 425/3/5
f 430/1/5 427/1/5 426/1/5
f 430/3/5 426/3/5 429/3/5
f 431/3/5 428/3/5 427/3/5
f 431/1/5 427/1/5 430/1/5
f 432/3/5 428/3/5 431/3/5
f 437/3/5 434/3/5 433/3/5
f 438/3/5 434/3/5 437/3/5
f 439/3/5 436/3/5 435/3/5
f 440/3/5 436/3/5 439/3/5
f 445/3/5 442/3/5 441/3/5
f 446/3/5 442/3/5 445/3/5
f 447/3/5 444/3/5 443/3/5
f 448/3/5 444/3/5 447/3/5
f 449/3/6 450/3/6 453/3/6
f 453/3/6 450/3/6 454/3/6
f 451/3/6 452/3/6 455/3/6
f 455/3/6 452/3/6 456/3/6
f 457/3/6 458/3/6 461/3/6
f 461/3/6 458/3/6 462/3/6
f 459/3/6 460/3/6 463/3/6
f 463/3/6 460/3/6 464/3/6
f 465/3/6 466/3/6 469/3/6
f 469/3/6 466/3/6 470/3/6
f 467/3/6 468/3/6 471/3/6
f 471/3/6 468/3/6 472/3/6
f 473/3/6 474/3/6 478/3/6
f 478/3/6 474/3/6 479/3/6
f 475/3/6 476/3/6 480/3/6
f 480/3/6 476/3/6 481/3/6
f 477/3/6 478/3/6 483/3/6
f 483/3/6 478/3/6 484/3/6
f 481/3/6 482/3/6 487/3/6
f 487/3/6 482/3/6 488/3/6
f 484/3/6 485/3/6 489/3/6
f 489/3/6 485/3/6 490/3/6
f 486/3/6 487/3/6 491/3/6
f 491/3/6 487/3/6 492/3/6
f 493/3/6 494/3/6 498/3/6
f 498/3/6 494/3/6 499/3/6
f 495/3/6 496/3/6 500/3/6
f 500/3/6 496/3/6 501/3/6
f 497/3/6 498/3/6 503/3/6
f 503/3/6 498/3/6 504/3/6
f 501/3/6 502/3/6 507/3/6
f 507/3/6 502/3/6 508/3/6
f 504/3/6 505/3/6 509/3/6
f 509/3/6 505/3/6 510/3/6
f 506/3/6 507/3/6 511/3/6
f 511/3/6 507/3/6 512/3/6
f 513/3/6 514/3/6 518/3/6
f 518/3/6 514/3/6 519/3/6
f 515/3/6 516/3/6 520/3/6
f 520/3/6 516/3/6 521/3/6
f 517/3/6 518/3/6 523/3/6
f 523/3/6 518/3/6 524/3/6
f 521/3/6 522/3/6 527/3/6
f 527/3/6 522/3/6 528/3/6
f 524/3/6 525/3/6 529/3/6
f 529/3/6 525/3/6 530/3/6
f 526/3/6 527/3/6 531/3/6
f 531/3/6 527/3/6 532/3/6
f 533/3/6 534/3/6 536/3/6
f 536/3/6 534/3/6 537/3/6
f 535/3/6 536/3/6 540/3/6
f 540/3/6 536/3/6 541/3/6
f 538/3/6 539/3/6 544/3/6
f 544/3/6 539/3/6 545/3/6
f 541/3/6 542/3/6 546/3/6
f 546/3/6 542/3/6 547/3/6
f 543/3/6 544/3/6 548/3/6
f 548/3/6 544/3/6 549/3/6
f 550/3/6 551/3/6 555/3/6
f 551/1/6 552/1/6 556/1/6
f 555/3/6 551/3/6 556/3/6
f 552/3/6 553/3/6 557/3/6
f 556/1/6 552/1/6 557/1/6
f 557/3/6 553/3/6 558/3/6
f 554/3/6 555/3/6 560/3/6
f 560/3/6 555/3/6 561/3/6
f 558/3/6 559/3/6 564/3/6
f 564/3/6 559/3/6 565/3/6
f 561/3/6 562/3/6 566/3/6
f 562/1/6 563/1/6 567/1/6
f 566/3/6 562/3/6 567/3/6
f 563/3/6 564/3/6 568/3/6
f 567/1/6 563/1/6 568/1/6
f 568/3/6 564/3/6 569/3/6
f 570/3/6 571/3/6 574/3/6
f 571/1/6 572/1/6 575/1/6
f 574/3/6 571/3/6 575/3/6
f 572/3/6 573/3/6 576/3/6
f 575/1/6 572/1/6 576/1/6
f 576/3/6 573/3/6 577/3/6
