# MagicaVoxel @ Ephtracy

# group
o 

# material
mtllib barrier1-4.mtl
usemtl palette

# normals
vn -1 0 0
vn 1 0 0
vn 0 0 1
vn 0 0 -1
vn 0 -1 0
vn 0 1 0

# texcoords
vt 0.00585938 0.5
vt 0.177734 0.5
vt 0.978516 0.5
vt 0.990234 0.5
vt 0.994141 0.5

# verts
v -1.8 0 -6.1
v -1.8 0 -9.1
v -1.8 2.2 -6.1
v -1.8 2.2 -9.1
v -1.8 2.8 -6.1
v -1.8 2.8 -9.1
v -1.6 0 -5.9
v -1.6 0 -6.1
v -1.6 0 -9.1
v -1.6 0 -9.3
v -1.6 2.2 -5.9
v -1.6 2.2 -6.1
v -1.6 2.2 -9.1
v -1.6 2.2 -9.3
v -1.6 2.8 -5.9
v -1.6 2.8 -6.1
v -1.6 2.8 -9.1
v -1.6 2.8 -9.3
v -1.4 12.9 -7.5
v -1.4 12.9 -7.7
v -1.4 13.1 -7.5
v -1.4 13.1 -7.7
v -1.3 12.9 -7.4
v -1.3 12.9 -7.5
v -1.3 12.9 -7.7
v -1.3 12.9 -7.8
v -1.3 13.1 -7.4
v -1.3 13.1 -7.5
v -1.3 13.1 -7.7
v -1.3 13.1 -7.8
v -1.3 13.2 -7.5
v -1.3 13.2 -7.7
v -1.2 12.8 -7.4
v -1.2 12.8 -7.8
v -1.2 12.9 -7.4
v -1.2 12.9 -7.8
v -1.2 13.1 -7.4
v -1.2 13.1 -7.5
v -1.2 13.1 -7.7
v -1.2 13.1 -7.8
v -1.2 13.2 -7.4
v -1.2 13.2 -7.5
v -1.2 13.2 -7.7
v -1.2 13.2 -7.8
v -1.1 12.7 -7.5
v -1.1 12.7 -7.7
v -1.1 12.8 -7.5
v -1.1 12.8 -7.7
v -0.8 2.8 -7.2
v -0.8 2.8 -8
v -0.8 3.2 -7.2
v -0.8 3.2 -8
v -0.7 2.8 -6.9
v -0.7 2.8 -7.2
v -0.7 2.8 -8
v -0.7 2.8 -8.3
v -0.7 3.2 -6.9
v -0.7 3.2 -7.2
v -0.7 3.2 -8
v -0.7 3.2 -8.3
v -0.6 2.8 -6.8
v -0.6 2.8 -6.9
v -0.6 2.8 -8.3
v -0.6 2.8 -8.4
v -0.6 3.2 -6.8
v -0.6 3.2 -6.9
v -0.6 3.2 -8.3
v -0.6 3.2 -8.4
v -0.4 12.7 -7.4
v -0.4 12.7 -7.7
v -0.4 12.8 -7.4
v -0.4 12.8 -7.7
v -0.3 2.8 -6.7
v -0.3 2.8 -6.8
v -0.3 2.8 -8.4
v -0.3 2.8 -8.5
v -0.3 3.2 -6.7
v -0.3 3.2 -6.8
v -0.3 3.2 -8.4
v -0.3 3.2 -8.5
v -0.3 12.7 -7.7
v -0.3 12.7 -7.8
v -0.3 12.8 -7.7
v -0.3 12.8 -7.8
v -0.2 3.2 -7.4
v -0.2 3.2 -7.8
v -0.2 12.7 -7.4
v -0.2 12.7 -7.8
v 0.1 13.1 -7.4
v 0.1 13.1 -7.8
v 0.1 13.2 -7.4
v 0.1 13.2 -7.8
v 0.3 2.2 -7.4
v 0.3 2.2 -7.8
v 0.3 2.8 -7.4
v 0.3 2.8 -7.8
v 0.6 12.7 -7.5
v 0.6 12.7 -7.7
v 0.6 12.8 -7.5
v 0.6 12.8 -7.7
v 0.7 2.8 -7.3
v 0.7 2.8 -8
v 0.7 2.9 -7.3
v 0.7 2.9 -8
v -0.6 12.7 -7.5
v -0.6 12.7 -7.7
v -0.6 12.8 -7.5
v -0.6 12.8 -7.7
v -0.0999999 13.1 -7.4
v -0.0999999 13.1 -7.8
v -0.0999999 13.2 -7.4
v -0.0999999 13.2 -7.8
v 0.2 2.2 -7.4
v 0.2 2.2 -7.8
v 0.2 2.8 -7.4
v 0.2 2.8 -7.8
v 0.2 3.2 -7.4
v 0.2 3.2 -7.8
v 0.2 12.7 -7.4
v 0.2 12.7 -7.8
v 0.3 2.8 -6.7
v 0.3 2.8 -6.8
v 0.3 2.8 -8.4
v 0.3 2.8 -8.5
v 0.3 3.2 -6.7
v 0.3 3.2 -6.8
v 0.3 3.2 -8.4
v 0.3 3.2 -8.5
v 0.3 12.7 -7.7
v 0.3 12.7 -7.8
v 0.3 12.8 -7.7
v 0.3 12.8 -7.8
v 0.4 12.7 -7.4
v 0.4 12.7 -7.7
v 0.4 12.8 -7.4
v 0.4 12.8 -7.7
v 0.6 2.8 -6.8
v 0.6 2.8 -6.9
v 0.6 2.8 -7.3
v 0.6 2.8 -8
v 0.6 2.8 -8.3
v 0.6 2.8 -8.4
v 0.6 2.9 -7.3
v 0.6 2.9 -8
v 0.6 3.2 -6.8
v 0.6 3.2 -6.9
v 0.6 3.2 -8.3
v 0.6 3.2 -8.4
v 0.7 2.8 -6.9
v 0.7 2.8 -7.2
v 0.7 2.8 -8
v 0.7 2.8 -8.3
v 0.7 3.2 -6.9
v 0.7 3.2 -7.2
v 0.7 3.2 -8
v 0.7 3.2 -8.3
v 0.8 2.8 -7.2
v 0.8 2.8 -8
v 0.8 3.2 -7.2
v 0.8 3.2 -8
v 1.1 12.7 -7.5
v 1.1 12.7 -7.7
v 1.1 12.8 -7.5
v 1.1 12.8 -7.7
v 1.2 12.8 -7.4
v 1.2 12.8 -7.8
v 1.2 12.9 -7.4
v 1.2 12.9 -7.8
v 1.2 13.1 -7.4
v 1.2 13.1 -7.5
v 1.2 13.1 -7.7
v 1.2 13.1 -7.8
v 1.2 13.2 -7.4
v 1.2 13.2 -7.5
v 1.2 13.2 -7.7
v 1.2 13.2 -7.8
v 1.3 12.9 -7.4
v 1.3 12.9 -7.5
v 1.3 12.9 -7.7
v 1.3 12.9 -7.8
v 1.3 13.1 -7.4
v 1.3 13.1 -7.5
v 1.3 13.1 -7.7
v 1.3 13.1 -7.8
v 1.3 13.2 -7.5
v 1.3 13.2 -7.7
v 1.4 12.9 -7.5
v 1.4 12.9 -7.7
v 1.4 13.1 -7.5
v 1.4 13.1 -7.7
v 1.6 0 -5.9
v 1.6 0 -6.1
v 1.6 0 -9.1
v 1.6 0 -9.3
v 1.6 2.2 -5.9
v 1.6 2.2 -6.1
v 1.6 2.2 -9.1
v 1.6 2.2 -9.3
v 1.6 2.8 -5.9
v 1.6 2.8 -6.1
v 1.6 2.8 -9.1
v 1.6 2.8 -9.3
v 1.8 0 -6.1
v 1.8 0 -9.1
v 1.8 2.2 -6.1
v 1.8 2.2 -9.1
v 1.8 2.8 -6.1
v 1.8 2.8 -9.1
v -1.6 0 -5.9
v -1.6 2.2 -5.9
v -1.6 2.8 -5.9
v 1.6 0 -5.9
v 1.6 2.2 -5.9
v 1.6 2.8 -5.9
v -1.8 0 -6.1
v -1.8 2.2 -6.1
v -1.8 2.8 -6.1
v -1.6 0 -6.1
v -1.6 2.2 -6.1
v -1.6 2.8 -6.1
v 1.6 0 -6.1
v 1.6 2.2 -6.1
v 1.6 2.8 -6.1
v 1.8 0 -6.1
v 1.8 2.2 -6.1
v 1.8 2.8 -6.1
v -0.3 2.8 -6.7
v -0.3 3.2 -6.7
v 0.3 2.8 -6.7
v 0.3 3.2 -6.7
v -0.6 2.8 -6.8
v -0.6 3.2 -6.8
v -0.3 2.8 -6.8
v -0.3 3.2 -6.8
v 0.3 2.8 -6.8
v 0.3 3.2 -6.8
v 0.6 2.8 -6.8
v 0.6 3.2 -6.8
v -0.7 2.8 -6.9
v -0.7 3.2 -6.9
v -0.6 2.8 -6.9
v -0.6 3.2 -6.9
v 0.6 2.8 -6.9
v 0.6 3.2 -6.9
v 0.7 2.8 -6.9
v 0.7 3.2 -6.9
v -0.8 2.8 -7.2
v -0.8 3.2 -7.2
v -0.7 2.8 -7.2
v -0.7 3.2 -7.2
v 0.7 2.8 -7.2
v 0.7 3.2 -7.2
v 0.8 2.8 -7.2
v 0.8 3.2 -7.2
v -1.3 12.9 -7.4
v -1.3 13.1 -7.4
v -1.2 12.8 -7.4
v -1.2 12.9 -7.4
v -1.2 13.1 -7.4
v -1.2 13.2 -7.4
v -0.5 12.8 -7.4
v -0.5 12.9 -7.4
v -0.4 12.7 -7.4
v -0.4 12.8 -7.4
v -0.2 3.2 -7.4
v -0.2 12.7 -7.4
v -0.0999999 13.1 -7.4
v -0.0999999 13.2 -7.4
v 0.1 13.1 -7.4
v 0.1 13.2 -7.4
v 0.2 3.2 -7.4
v 0.2 12.7 -7.4
v 0.4 12.7 -7.4
v 0.4 12.8 -7.4
v 0.5 12.8 -7.4
v 0.5 12.9 -7.4
v 1.2 12.8 -7.4
v 1.2 12.9 -7.4
v 1.2 13.1 -7.4
v 1.2 13.2 -7.4
v 1.3 12.9 -7.4
v 1.3 13.1 -7.4
v -1.4 12.9 -7.5
v -1.4 13.1 -7.5
v -1.3 12.9 -7.5
v -1.3 13.1 -7.5
v -1.3 13.2 -7.5
v -1.2 13.1 -7.5
v -1.2 13.2 -7.5
v -1.1 12.7 -7.5
v -1.1 12.8 -7.5
v -0.6 12.7 -7.5
v -0.6 12.8 -7.5
v 0.6 12.7 -7.5
v 0.6 12.8 -7.5
v 1.1 12.7 -7.5
v 1.1 12.8 -7.5
v 1.2 13.1 -7.5
v 1.2 13.2 -7.5
v 1.3 12.9 -7.5
v 1.3 13.1 -7.5
v 1.3 13.2 -7.5
v 1.4 12.9 -7.5
v 1.4 13.1 -7.5
v 0.2 2.2 -7.8
v 0.2 2.8 -7.8
v 0.3 2.2 -7.8
v 0.3 2.8 -7.8
v 0.6 2.8 -8
v 0.6 2.9 -8
v 0.7 2.8 -8
v 0.7 2.9 -8
v 0.6 2.8 -7.3
v 0.6 2.9 -7.3
v 0.7 2.8 -7.3
v 0.7 2.9 -7.3
v 0.2 2.2 -7.4
v 0.2 2.8 -7.4
v 0.3 2.2 -7.4
v 0.3 2.8 -7.4
v -1.4 12.9 -7.7
v -1.4 13.1 -7.7
v -1.3 12.9 -7.7
v -1.3 13.1 -7.7
v -1.3 13.2 -7.7
v -1.2 13.1 -7.7
v -1.2 13.2 -7.7
v -1.1 12.7 -7.7
v -1.1 12.8 -7.7
v -0.6 12.7 -7.7
v -0.6 12.8 -7.7
v -0.4 12.7 -7.7
v -0.4 12.8 -7.7
v -0.3 12.7 -7.7
v -0.3 12.8 -7.7
v 0.3 12.7 -7.7
v 0.3 12.8 -7.7
v 0.4 12.7 -7.7
v 0.4 12.8 -7.7
v 0.6 12.7 -7.7
v 0.6 12.8 -7.7
v 1.1 12.7 -7.7
v 1.1 12.8 -7.7
v 1.2 13.1 -7.7
v 1.2 13.2 -7.7
v 1.3 12.9 -7.7
v 1.3 13.1 -7.7
v 1.3 13.2 -7.7
v 1.4 12.9 -7.7
v 1.4 13.1 -7.7
v -1.3 12.9 -7.8
v -1.3 13.1 -7.8
v -1.2 12.8 -7.8
v -1.2 12.9 -7.8
v -1.2 13.1 -7.8
v -1.2 13.2 -7.8
v -0.5 12.8 -7.8
v -0.5 12.9 -7.8
v -0.3 12.7 -7.8
v -0.3 12.8 -7.8
v -0.2 3.2 -7.8
v -0.2 12.7 -7.8
v -0.0999999 13.1 -7.8
v -0.0999999 13.2 -7.8
v 0.1 13.1 -7.8
v 0.1 13.2 -7.8
v 0.2 3.2 -7.8
v 0.2 12.7 -7.8
v 0.3 12.7 -7.8
v 0.3 12.8 -7.8
v 0.5 12.8 -7.8
v 0.5 12.9 -7.8
v 1.2 12.8 -7.8
v 1.2 12.9 -7.8
v 1.2 13.1 -7.8
v 1.2 13.2 -7.8
v 1.3 12.9 -7.8
v 1.3 13.1 -7.8
v -0.8 2.8 -8
v -0.8 3.2 -8
v -0.7 2.8 -8
v -0.7 3.2 -8
v 0.7 2.8 -8
v 0.7 3.2 -8
v 0.8 2.8 -8
v 0.8 3.2 -8
v -0.7 2.8 -8.3
v -0.7 3.2 -8.3
v -0.6 2.8 -8.3
v -0.6 3.2 -8.3
v 0.6 2.8 -8.3
v 0.6 3.2 -8.3
v 0.7 2.8 -8.3
v 0.7 3.2 -8.3
v -0.6 2.8 -8.4
v -0.6 3.2 -8.4
v -0.3 2.8 -8.4
v -0.3 3.2 -8.4
v 0.3 2.8 -8.4
v 0.3 3.2 -8.4
v 0.6 2.8 -8.4
v 0.6 3.2 -8.4
v -0.3 2.8 -8.5
v -0.3 3.2 -8.5
v 0.3 2.8 -8.5
v 0.3 3.2 -8.5
v -1.8 0 -9.1
v -1.8 2.2 -9.1
v -1.8 2.8 -9.1
v -1.6 0 -9.1
v -1.6 2.2 -9.1
v -1.6 2.8 -9.1
v 1.6 0 -9.1
v 1.6 2.2 -9.1
v 1.6 2.8 -9.1
v 1.8 0 -9.1
v 1.8 2.2 -9.1
v 1.8 2.8 -9.1
v -1.6 0 -9.3
v -1.6 2.2 -9.3
v -1.6 2.8 -9.3
v 1.6 0 -9.3
v 1.6 2.2 -9.3
v 1.6 2.8 -9.3
v -1.6 0 -5.9
v 1.6 0 -5.9
v -1.8 0 -6.1
v -1.6 0 -6.1
v 1.6 0 -6.1
v 1.8 0 -6.1
v -1.8 0 -9.1
v -1.6 0 -9.1
v 1.6 0 -9.1
v 1.8 0 -9.1
v -1.6 0 -9.3
v 1.6 0 -9.3
v 0.2 2.8 -7.4
v 0.3 2.8 -7.4
v 0.2 2.8 -7.8
v 0.3 2.8 -7.8
v 0.6 2.9 -7.3
v 0.7 2.9 -7.3
v 0.6 2.9 -8
v 0.7 2.9 -8
v -0.4 12.7 -7.4
v -0.2 12.7 -7.4
v 0.2 12.7 -7.4
v 0.4 12.7 -7.4
v -1.1 12.7 -7.5
v -0.6 12.7 -7.5
v 0.6 12.7 -7.5
v 1.1 12.7 -7.5
v -1.1 12.7 -7.7
v -0.6 12.7 -7.7
v -0.4 12.7 -7.7
v -0.3 12.7 -7.7
v 0.3 12.7 -7.7
v 0.4 12.7 -7.7
v 0.6 12.7 -7.7
v 1.1 12.7 -7.7
v -0.3 12.7 -7.8
v -0.2 12.7 -7.8
v 0.2 12.7 -7.8
v 0.3 12.7 -7.8
v -1.2 12.8 -7.4
v -0.5 12.8 -7.4
v -0.4 12.8 -7.4
v 0.4 12.8 -7.4
v 0.5 12.8 -7.4
v 1.2 12.8 -7.4
v -1.1 12.8 -7.5
v -0.6 12.8 -7.5
v 0.6 12.8 -7.5
v 1.1 12.8 -7.5
v -1.1 12.8 -7.7
v -0.6 12.8 -7.7
v -0.4 12.8 -7.7
v -0.3 12.8 -7.7
v 0.3 12.8 -7.7
v 0.4 12.8 -7.7
v 0.6 12.8 -7.7
v 1.1 12.8 -7.7
v -1.2 12.8 -7.8
v -0.5 12.8 -7.8
v -0.3 12.8 -7.8
v 0.3 12.8 -7.8
v 0.5 12.8 -7.8
v 1.2 12.8 -7.8
v -1.3 12.9 -7.4
v -1.2 12.9 -7.4
v 1.2 12.9 -7.4
v 1.3 12.9 -7.4
v -1.4 12.9 -7.5
v -1.3 12.9 -7.5
v 1.3 12.9 -7.5
v 1.4 12.9 -7.5
v -1.4 12.9 -7.7
v -1.3 12.9 -7.7
v 1.3 12.9 -7.7
v 1.4 12.9 -7.7
v -1.3 12.9 -7.8
v -1.2 12.9 -7.8
v 1.2 12.9 -7.8
v 1.3 12.9 -7.8
v 0.2 2.2 -7.4
v 0.3 2.2 -7.4
v 0.2 2.2 -7.8
v 0.3 2.2 -7.8
v -1.6 2.8 -5.9
v 1.6 2.8 -5.9
v -1.8 2.8 -6.1
v -1.6 2.8 -6.1
v 1.6 2.8 -6.1
v 1.8 2.8 -6.1
v -1.2 2.8 -6.2
v 1.2 2.8 -6.2
v -1.4 2.8 -6.3
v -1.2 2.8 -6.3
v 1.2 2.8 -6.3
v 1.4 2.8 -6.3
v -1.5 2.8 -6.5
v -1.4 2.8 -6.5
v 1.4 2.8 -6.5
v 1.5 2.8 -6.5
v -0.3 2.8 -6.7
v 0.3 2.8 -6.7
v -0.6 2.8 -6.8
v -0.3 2.8 -6.8
v 0.3 2.8 -6.8
v 0.6 2.8 -6.8
v -0.7 2.8 -6.9
v -0.6 2.8 -6.9
v 0.6 2.8 -6.9
v 0.7 2.8 -6.9
v -0.8 2.8 -7.2
v -0.7 2.8 -7.2
v 0.7 2.8 -7.2
v 0.8 2.8 -7.2
v 0.6 2.8 -7.3
v 0.7 2.8 -7.3
v -0.8 2.8 -8
v -0.7 2.8 -8
v 0.6 2.8 -8
v 0.7 2.8 -8
v 0.8 2.8 -8
v -0.7 2.8 -8.3
v -0.6 2.8 -8.3
v 0.6 2.8 -8.3
v 0.7 2.8 -8.3
v -0.6 2.8 -8.4
v -0.3 2.8 -8.4
v 0.3 2.8 -8.4
v 0.6 2.8 -8.4
v -0.3 2.8 -8.5
v 0.3 2.8 -8.5
v -1.5 2.8 -8.7
v -1.4 2.8 -8.7
v 1.4 2.8 -8.7
v 1.5 2.8 -8.7
v -1.4 2.8 -8.9
v -1.2 2.8 -8.9
v 1.2 2.8 -8.9
v 1.4 2.8 -8.9
v -1.2 2.8 -9
v 1.2 2.8 -9
v -1.8 2.8 -9.1
v -1.6 2.8 -9.1
v 1.6 2.8 -9.1
v 1.8 2.8 -9.1
v -1.6 2.8 -9.3
v 1.6 2.8 -9.3
v -0.3 3.2 -6.7
v 0.3 3.2 -6.7
v -0.6 3.2 -6.8
v -0.3 3.2 -6.8
v 0.3 3.2 -6.8
v 0.6 3.2 -6.8
v -0.7 3.2 -6.9
v -0.6 3.2 -6.9
v 0.6 3.2 -6.9
v 0.7 3.2 -6.9
v -0.8 3.2 -7.2
v -0.7 3.2 -7.2
v 0.7 3.2 -7.2
v 0.8 3.2 -7.2
v -0.2 3.2 -7.4
v 0.2 3.2 -7.4
v -0.2 3.2 -7.8
v 0.2 3.2 -7.8
v -0.8 3.2 -8
v -0.7 3.2 -8
v 0.7 3.2 -8
v 0.8 3.2 -8
v -0.7 3.2 -8.3
v -0.6 3.2 -8.3
v 0.6 3.2 -8.3
v 0.7 3.2 -8.3
v -0.6 3.2 -8.4
v -0.3 3.2 -8.4
v 0.3 3.2 -8.4
v 0.6 3.2 -8.4
v -0.3 3.2 -8.5
v 0.3 3.2 -8.5
v -1.3 13.1 -7.4
v -1.2 13.1 -7.4
v -0.0999999 13.1 -7.4
v 0.1 13.1 -7.4
v 1.2 13.1 -7.4
v 1.3 13.1 -7.4
v -1.4 13.1 -7.5
v -1.3 13.1 -7.5
v -1.2 13.1 -7.5
v 1.2 13.1 -7.5
v 1.3 13.1 -7.5
v 1.4 13.1 -7.5
v -1.4 13.1 -7.7
v -1.3 13.1 -7.7
v -1.2 13.1 -7.7
v 1.2 13.1 -7.7
v 1.3 13.1 -7.7
v 1.4 13.1 -7.7
v -1.3 13.1 -7.8
v -1.2 13.1 -7.8
v -0.0999999 13.1 -7.8
v 0.1 13.1 -7.8
v 1.2 13.1 -7.8
v 1.3 13.1 -7.8
v -1.2 13.2 -7.4
v -0.0999999 13.2 -7.4
v 0.1 13.2 -7.4
v 1.2 13.2 -7.4
v -1.3 13.2 -7.5
v -1.2 13.2 -7.5
v 1.2 13.2 -7.5
v 1.3 13.2 -7.5
v -1.3 13.2 -7.7
v -1.2 13.2 -7.7
v 1.2 13.2 -7.7
v 1.3 13.2 -7.7
v -1.2 13.2 -7.8
v -0.0999999 13.2 -7.8
v 0.1 13.2 -7.8
v 1.2 13.2 -7.8

# faces
f 3/3/1 2/3/1 1/3/1
f 4/3/1 2/3/1 3/3/1
f 5/2/1 4/2/1 3/2/1
f 6/2/1 4/2/1 5/2/1
f 11/3/1 8/3/1 7/3/1
f 12/3/1 8/3/1 11/3/1
f 13/3/1 10/3/1 9/3/1
f 14/3/1 10/3/1 13/3/1
f 15/2/1 12/2/1 11/2/1
f 16/2/1 12/2/1 15/2/1
f 17/2/1 14/2/1 13/2/1
f 18/2/1 14/2/1 17/2/1
f 21/4/1 20/4/1 19/4/1
f 22/4/1 20/4/1 21/4/1
f 27/4/1 24/4/1 23/4/1
f 28/4/1 24/4/1 27/4/1
f 29/4/1 26/4/1 25/4/1
f 30/4/1 26/4/1 29/4/1
f 31/4/1 29/4/1 28/4/1
f 32/4/1 29/4/1 31/4/1
f 35/1/1 34/1/1 33/1/1
f 36/1/1 34/1/1 35/1/1
f 41/4/1 38/4/1 37/4/1
f 42/4/1 38/4/1 41/4/1
f 43/4/1 40/4/1 39/4/1
f 44/4/1 40/4/1 43/4/1
f 47/1/1 46/1/1 45/1/1
f 48/1/1 46/1/1 47/1/1
f 51/5/1 50/5/1 49/5/1
f 52/5/1 50/5/1 51/5/1
f 57/5/1 54/5/1 53/5/1
f 58/5/1 54/5/1 57/5/1
f 59/5/1 56/5/1 55/5/1
f 60/5/1 56/5/1 59/5/1
f 65/5/1 62/5/1 61/5/1
f 66/5/1 62/5/1 65/5/1
f 67/5/1 64/5/1 63/5/1
f 68/5/1 64/5/1 67/5/1
f 71/4/1 70/4/1 69/4/1
f 72/4/1 70/4/1 71/4/1
f 77/5/1 74/5/1 73/5/1
f 78/5/1 74/5/1 77/5/1
f 79/5/1 76/5/1 75/5/1
f 80/5/1 76/5/1 79/5/1
f 83/4/1 82/4/1 81/4/1
f 84/4/1 82/4/1 83/4/1
f 87/4/1 86/4/1 85/4/1
f 88/4/1 86/4/1 87/4/1
f 91/4/1 90/4/1 89/4/1
f 92/4/1 90/4/1 91/4/1
f 95/3/1 94/3/1 93/3/1
f 96/3/1 94/3/1 95/3/1
f 99/1/1 98/1/1 97/1/1
f 100/1/1 98/1/1 99/1/1
f 103/5/1 102/5/1 101/5/1
f 104/5/1 102/5/1 103/5/1
f 105/1/2 106/1/2 107/1/2
f 107/1/2 106/1/2 108/1/2
f 109/4/2 110/4/2 111/4/2
f 111/4/2 110/4/2 112/4/2
f 113/4/2 114/4/2 115/4/2
f 115/4/2 114/4/2 116/4/2
f 117/4/2 118/4/2 119/4/2
f 119/4/2 118/4/2 120/4/2
f 121/5/2 122/5/2 125/5/2
f 125/5/2 122/5/2 126/5/2
f 123/5/2 124/5/2 127/5/2
f 127/5/2 124/5/2 128/5/2
f 129/4/2 130/4/2 131/4/2
f 131/4/2 130/4/2 132/4/2
f 133/4/2 134/4/2 135/4/2
f 135/4/2 134/4/2 136/4/2
f 139/5/2 140/5/2 143/5/2
f 143/5/2 140/5/2 144/5/2
f 137/5/2 138/5/2 145/5/2
f 145/5/2 138/5/2 146/5/2
f 141/5/2 142/5/2 147/5/2
f 147/5/2 142/5/2 148/5/2
f 149/5/2 150/5/2 153/5/2
f 153/5/2 150/5/2 154/5/2
f 151/5/2 152/5/2 155/5/2
f 155/5/2 152/5/2 156/5/2
f 157/5/2 158/5/2 159/5/2
f 159/5/2 158/5/2 160/5/2
f 161/1/2 162/1/2 163/1/2
f 163/1/2 162/1/2 164/1/2
f 165/1/2 166/1/2 167/1/2
f 167/1/2 166/1/2 168/1/2
f 169/4/2 170/4/2 173/4/2
f 173/4/2 170/4/2 174/4/2
f 171/4/2 172/4/2 175/4/2
f 175/4/2 172/4/2 176/4/2
f 177/4/2 178/4/2 181/4/2
f 181/4/2 178/4/2 182/4/2
f 179/4/2 180/4/2 183/4/2
f 183/4/2 180/4/2 184/4/2
f 182/4/2 183/4/2 185/4/2
f 185/4/2 183/4/2 186/4/2
f 187/4/2 188/4/2 189/4/2
f 189/4/2 188/4/2 190/4/2
f 191/3/2 192/3/2 195/3/2
f 195/3/2 192/3/2 196/3/2
f 193/3/2 194/3/2 197/3/2
f 197/3/2 194/3/2 198/3/2
f 195/2/2 196/2/2 199/2/2
f 199/2/2 196/2/2 200/2/2
f 197/2/2 198/2/2 201/2/2
f 201/2/2 198/2/2 202/2/2
f 203/3/2 204/3/2 205/3/2
f 205/3/2 204/3/2 206/3/2
f 205/2/2 206/2/2 207/2/2
f 207/2/2 206/2/2 208/2/2
f 212/3/3 210/3/3 209/3/3
f 213/2/3 211/2/3 210/2/3
f 213/3/3 210/3/3 212/3/3
f 214/2/3 211/2/3 213/2/3
f 218/3/3 216/3/3 215/3/3
f 219/2/3 217/2/3 216/2/3
f 219/3/3 216/3/3 218/3/3
f 220/2/3 217/2/3 219/2/3
f 224/3/3 222/3/3 221/3/3
f 225/2/3 223/2/3 222/2/3
f 225/3/3 222/3/3 224/3/3
f 226/2/3 223/2/3 225/2/3
f 229/5/3 228/5/3 227/5/3
f 230/5/3 228/5/3 229/5/3
f 233/5/3 232/5/3 231/5/3
f 234/5/3 232/5/3 233/5/3
f 237/5/3 236/5/3 235/5/3
f 238/5/3 236/5/3 237/5/3
f 241/5/3 240/5/3 239/5/3
f 242/5/3 240/5/3 241/5/3
f 245/5/3 244/5/3 243/5/3
f 246/5/3 244/5/3 245/5/3
f 249/5/3 248/5/3 247/5/3
f 250/5/3 248/5/3 249/5/3
f 253/5/3 252/5/3 251/5/3
f 254/5/3 252/5/3 253/5/3
f 258/4/3 256/4/3 255/4/3
f 259/4/3 256/4/3 258/4/3
f 261/1/3 258/1/3 257/1/3
f 262/4/3 260/4/3 259/4/3
f 262/1/3 258/1/3 261/1/3
f 262/4/3 259/4/3 258/4/3
f 264/4/3 262/4/3 261/4/3
f 266/4/3 264/4/3 263/4/3
f 267/4/3 260/4/3 262/4/3
f 267/4/3 266/4/3 265/4/3
f 267/4/3 264/4/3 266/4/3
f 267/4/3 262/4/3 264/4/3
f 268/4/3 260/4/3 267/4/3
f 269/4/3 267/4/3 265/4/3
f 271/4/3 269/4/3 265/4/3
f 271/4/3 270/4/3 269/4/3
f 272/4/3 270/4/3 271/4/3
f 273/4/3 270/4/3 272/4/3
f 274/4/3 270/4/3 273/4/3
f 275/4/3 270/4/3 274/4/3
f 276/4/3 270/4/3 275/4/3
f 277/1/3 276/1/3 275/1/3
f 278/4/3 270/4/3 276/4/3
f 278/1/3 276/1/3 277/1/3
f 279/4/3 270/4/3 278/4/3
f 280/4/3 270/4/3 279/4/3
f 281/4/3 279/4/3 278/4/3
f 282/4/3 279/4/3 281/4/3
f 285/4/3 284/4/3 283/4/3
f 286/4/3 284/4/3 285/4/3
f 288/4/3 287/4/3 286/4/3
f 289/4/3 287/4/3 288/4/3
f 292/1/3 291/1/3 290/1/3
f 293/1/3 291/1/3 292/1/3
f 296/1/3 295/1/3 294/1/3
f 297/1/3 295/1/3 296/1/3
f 301/4/3 299/4/3 298/4/3
f 302/4/3 299/4/3 301/4/3
f 303/4/3 301/4/3 300/4/3
f 304/4/3 301/4/3 303/4/3
f 307/3/3 306/3/3 305/3/3
f 308/3/3 306/3/3 307/3/3
f 311/5/3 310/5/3 309/5/3
f 312/5/3 310/5/3 311/5/3
f 313/5/4 314/5/4 315/5/4
f 315/5/4 314/5/4 316/5/4
f 317/3/4 318/3/4 319/3/4
f 319/3/4 318/3/4 320/3/4
f 321/4/4 322/4/4 323/4/4
f 323/4/4 322/4/4 324/4/4
f 324/4/4 325/4/4 326/4/4
f 326/4/4 325/4/4 327/4/4
f 328/1/4 329/1/4 330/1/4
f 330/1/4 329/1/4 331/1/4
f 332/4/4 333/4/4 334/4/4
f 334/4/4 333/4/4 335/4/4
f 336/4/4 337/4/4 338/4/4
f 338/4/4 337/4/4 339/4/4
f 340/1/4 341/1/4 342/1/4
f 342/1/4 341/1/4 343/1/4
f 344/4/4 345/4/4 347/4/4
f 347/4/4 345/4/4 348/4/4
f 346/4/4 347/4/4 349/4/4
f 349/4/4 347/4/4 350/4/4
f 351/4/4 352/4/4 354/4/4
f 354/4/4 352/4/4 355/4/4
f 353/1/4 354/1/4 357/1/4
f 355/4/4 356/4/4 358/4/4
f 357/1/4 354/1/4 358/1/4
f 354/4/4 355/4/4 358/4/4
f 357/4/4 358/4/4 360/4/4
f 359/4/4 360/4/4 362/4/4
f 358/4/4 356/4/4 363/4/4
f 361/4/4 362/4/4 363/4/4
f 362/4/4 360/4/4 363/4/4
f 360/4/4 358/4/4 363/4/4
f 363/4/4 356/4/4 364/4/4
f 361/4/4 363/4/4 365/4/4
f 361/4/4 365/4/4 367/4/4
f 365/4/4 366/4/4 367/4/4
f 367/4/4 366/4/4 368/4/4
f 368/4/4 366/4/4 369/4/4
f 369/4/4 366/4/4 370/4/4
f 370/4/4 366/4/4 371/4/4
f 371/4/4 366/4/4 372/4/4
f 371/1/4 372/1/4 373/1/4
f 372/4/4 366/4/4 374/4/4
f 373/1/4 372/1/4 374/1/4
f 374/4/4 366/4/4 375/4/4
f 375/4/4 366/4/4 376/4/4
f 374/4/4 375/4/4 377/4/4
f 377/4/4 375/4/4 378/4/4
f 379/5/4 380/5/4 381/5/4
f 381/5/4 380/5/4 382/5/4
f 383/5/4 384/5/4 385/5/4
f 385/5/4 384/5/4 386/5/4
f 387/5/4 388/5/4 389/5/4
f 389/5/4 388/5/4 390/5/4
f 391/5/4 392/5/4 393/5/4
f 393/5/4 392/5/4 394/5/4
f 395/5/4 396/5/4 397/5/4
f 397/5/4 396/5/4 398/5/4
f 399/5/4 400/5/4 401/5/4
f 401/5/4 400/5/4 402/5/4
f 403/5/4 404/5/4 405/5/4
f 405/5/4 404/5/4 406/5/4
f 407/3/4 408/3/4 410/3/4
f 408/2/4 409/2/4 411/2/4
f 410/3/4 408/3/4 411/3/4
f 411/2/4 409/2/4 412/2/4
f 413/3/4 414/3/4 416/3/4
f 414/2/4 415/2/4 417/2/4
f 416/3/4 414/3/4 417/3/4
f 417/2/4 415/2/4 418/2/4
f 419/3/4 420/3/4 422/3/4
f 420/2/4 421/2/4 423/2/4
f 422/3/4 420/3/4 423/3/4
f 423/2/4 421/2/4 424/2/4
f 428/3/5 426/3/5 425/3/5
f 429/3/5 426/3/5 428/3/5
f 431/3/5 428/3/5 427/3/5
f 431/3/5 430/3/5 429/3/5
f 431/3/5 429/3/5 428/3/5
f 432/3/5 430/3/5 431/3/5
f 433/3/5 430/3/5 432/3/5
f 434/3/5 430/3/5 433/3/5
f 435/3/5 433/3/5 432/3/5
f 436/3/5 433/3/5 435/3/5
f 439/5/5 438/5/5 437/5/5
f 440/5/5 438/5/5 439/5/5
f 443/5/5 442/5/5 441/5/5
f 444/5/5 442/5/5 443/5/5
f 453/1/5 450/1/5 449/1/5
f 454/1/5 450/1/5 453/1/5
f 455/4/5 446/4/5 445/4/5
f 456/4/5 446/4/5 455/4/5
f 457/4/5 448/4/5 447/4/5
f 458/4/5 448/4/5 457/4/5
f 459/1/5 452/1/5 451/1/5
f 460/1/5 452/1/5 459/1/5
f 461/4/5 446/4/5 456/4/5
f 462/4/5 446/4/5 461/4/5
f 463/4/5 457/4/5 447/4/5
f 464/4/5 457/4/5 463/4/5
f 471/1/5 466/1/5 465/1/5
f 472/1/5 466/1/5 471/1/5
f 473/1/5 470/1/5 469/1/5
f 474/1/5 470/1/5 473/1/5
f 475/1/5 471/1/5 465/1/5
f 476/1/5 466/1/5 472/1/5
f 477/4/5 467/4/5 466/4/5
f 480/4/5 469/4/5 468/4/5
f 481/1/5 473/1/5 469/1/5
f 482/1/5 470/1/5 474/1/5
f 483/1/5 475/1/5 465/1/5
f 483/1/5 476/1/5 475/1/5
f 484/4/5 478/4/5 477/4/5
f 484/1/5 476/1/5 483/1/5
f 484/1/5 466/1/5 476/1/5
f 484/4/5 477/4/5 466/4/5
f 485/4/5 478/4/5 484/4/5
f 486/4/5 480/4/5 479/4/5
f 487/1/5 482/1/5 481/1/5
f 487/4/5 480/4/5 486/4/5
f 487/1/5 481/1/5 469/1/5
f 487/4/5 469/4/5 480/4/5
f 488/1/5 470/1/5 482/1/5
f 488/1/5 482/1/5 487/1/5
f 494/4/5 490/4/5 489/4/5
f 495/4/5 492/4/5 491/4/5
f 497/4/5 494/4/5 493/4/5
f 498/4/5 490/4/5 494/4/5
f 498/4/5 494/4/5 497/4/5
f 499/4/5 496/4/5 495/4/5
f 499/4/5 495/4/5 491/4/5
f 500/4/5 496/4/5 499/4/5
f 501/4/5 490/4/5 498/4/5
f 502/4/5 490/4/5 501/4/5
f 503/4/5 499/4/5 491/4/5
f 504/4/5 499/4/5 503/4/5
f 505/3/6 506/3/6 507/3/6
f 507/3/6 506/3/6 508/3/6
f 509/2/6 510/2/6 512/2/6
f 512/2/6 510/2/6 513/2/6
f 511/2/6 512/2/6 515/2/6
f 513/2/6 514/2/6 515/2/6
f 512/2/6 513/2/6 515/2/6
f 515/2/6 514/2/6 516/2/6
f 511/2/6 515/2/6 517/2/6
f 515/3/6 516/3/6 518/3/6
f 517/2/6 515/2/6 518/2/6
f 516/2/6 514/2/6 519/2/6
f 518/3/6 516/3/6 519/3/6
f 519/2/6 514/2/6 520/2/6
f 511/2/6 517/2/6 521/2/6
f 517/3/6 518/3/6 522/3/6
f 521/2/6 517/2/6 522/2/6
f 518/3/6 519/3/6 522/3/6
f 519/3/6 520/3/6 522/3/6
f 520/2/6 514/2/6 523/2/6
f 522/3/6 520/3/6 523/3/6
f 523/2/6 514/2/6 524/2/6
f 521/3/6 522/3/6 525/3/6
f 522/3/6 523/3/6 525/3/6
f 523/3/6 524/3/6 525/3/6
f 525/3/6 524/3/6 526/3/6
f 521/3/6 525/3/6 527/3/6
f 527/3/6 525/3/6 528/3/6
f 526/3/6 524/3/6 529/3/6
f 529/3/6 524/3/6 530/3/6
f 521/3/6 527/3/6 531/3/6
f 531/3/6 527/3/6 532/3/6
f 530/3/6 524/3/6 533/3/6
f 533/3/6 524/3/6 534/3/6
f 521/3/6 531/3/6 535/3/6
f 535/3/6 531/3/6 536/3/6
f 534/3/6 524/3/6 537/3/6
f 537/3/6 524/3/6 538/3/6
f 521/3/6 535/3/6 541/3/6
f 539/3/6 540/3/6 543/3/6
f 543/3/6 540/3/6 544/3/6
f 538/3/6 524/3/6 545/3/6
f 541/3/6 542/3/6 546/3/6
f 544/3/6 545/3/6 549/3/6
f 546/3/6 547/3/6 550/3/6
f 548/3/6 549/3/6 553/3/6
f 550/3/6 551/3/6 554/3/6
f 552/3/6 553/3/6 555/3/6
f 511/2/6 521/2/6 556/2/6
f 554/3/6 555/3/6 556/3/6
f 550/3/6 554/3/6 556/3/6
f 521/3/6 541/3/6 556/3/6
f 541/3/6 546/3/6 556/3/6
f 546/3/6 550/3/6 556/3/6
f 556/3/6 555/3/6 557/3/6
f 555/3/6 553/3/6 558/3/6
f 557/3/6 555/3/6 558/3/6
f 545/3/6 524/3/6 558/3/6
f 553/3/6 549/3/6 558/3/6
f 549/3/6 545/3/6 558/3/6
f 524/2/6 514/2/6 559/2/6
f 558/3/6 524/3/6 559/3/6
f 556/2/6 557/2/6 560/2/6
f 557/3/6 558/3/6 560/3/6
f 560/3/6 558/3/6 561/3/6
f 561/3/6 558/3/6 562/3/6
f 558/2/6 559/2/6 563/2/6
f 562/3/6 558/3/6 563/3/6
f 561/3/6 562/3/6 564/3/6
f 560/2/6 561/2/6 564/2/6
f 562/2/6 563/2/6 565/2/6
f 564/3/6 562/3/6 565/3/6
f 511/2/6 556/2/6 566/2/6
f 556/2/6 560/2/6 566/2/6
f 564/2/6 565/2/6 566/2/6
f 560/2/6 564/2/6 566/2/6
f 566/2/6 565/2/6 567/2/6
f 559/2/6 514/2/6 568/2/6
f 567/2/6 565/2/6 568/2/6
f 563/2/6 559/2/6 568/2/6
f 565/2/6 563/2/6 568/2/6
f 568/2/6 514/2/6 569/2/6
f 567/2/6 568/2/6 570/2/6
f 570/2/6 568/2/6 571/2/6
f 572/5/6 573/5/6 575/5/6
f 575/5/6 573/5/6 576/5/6
f 574/5/6 575/5/6 579/5/6
f 576/5/6 577/5/6 579/5/6
f 575/5/6 576/5/6 579/5/6
f 579/5/6 577/5/6 580/5/6
f 578/5/6 579/5/6 583/5/6
f 580/5/6 581/5/6 583/5/6
f 579/5/6 580/5/6 583/5/6
f 583/5/6 581/5/6 584/5/6
f 582/5/6 583/5/6 586/5/6
f 584/5/6 585/5/6 586/5/6
f 583/5/6 584/5/6 586/5/6
f 586/5/6 585/5/6 587/5/6
f 582/5/6 586/5/6 588/5/6
f 587/5/6 585/5/6 589/5/6
f 582/5/6 588/5/6 590/5/6
f 588/5/6 589/5/6 590/5/6
f 590/5/6 589/5/6 591/5/6
f 589/5/6 585/5/6 592/5/6
f 591/5/6 589/5/6 592/5/6
f 592/5/6 585/5/6 593/5/6
f 591/5/6 592/5/6 594/5/6
f 594/5/6 592/5/6 595/5/6
f 595/5/6 592/5/6 596/5/6
f 596/5/6 592/5/6 597/5/6
f 595/5/6 596/5/6 598/5/6
f 598/5/6 596/5/6 599/5/6
f 599/5/6 596/5/6 600/5/6
f 600/5/6 596/5/6 601/5/6
f 599/5/6 600/5/6 602/5/6
f 602/5/6 600/5/6 603/5/6
f 604/4/6 605/4/6 611/4/6
f 611/4/6 605/4/6 612/4/6
f 608/4/6 609/4/6 613/4/6
f 613/4/6 609/4/6 614/4/6
f 610/4/6 611/4/6 616/4/6
f 616/4/6 611/4/6 617/4/6
f 614/4/6 615/4/6 620/4/6
f 620/4/6 615/4/6 621/4/6
f 617/4/6 618/4/6 622/4/6
f 622/4/6 618/4/6 623/4/6
f 606/4/6 607/4/6 624/4/6
f 624/4/6 607/4/6 625/4/6
f 619/4/6 620/4/6 626/4/6
f 626/4/6 620/4/6 627/4/6
f 628/4/6 629/4/6 633/4/6
f 630/4/6 631/4/6 634/4/6
f 632/4/6 633/4/6 636/4/6
f 633/4/6 629/4/6 637/4/6
f 636/4/6 633/4/6 637/4/6
f 634/4/6 635/4/6 638/4/6
f 630/4/6 634/4/6 638/4/6
f 638/4/6 635/4/6 639/4/6
f 637/4/6 629/4/6 640/4/6
f 640/4/6 629/4/6 641/4/6
f 630/4/6 638/4/6 642/4/6
f 642/4/6 638/4/6 643/4/6
