# Blender 3.6.10 Release Candidate
# www.blender.org
mtllib crystalR.mtl
o crystalR
v -0.250000 0.191150 0.050000
v -0.250000 0.191150 -0.050000
v -0.250000 0.791150 0.050000
v -0.250000 0.791150 -0.050000
v -0.150000 0.091150 0.050000
v -0.150000 0.091150 -0.050000
v -0.150000 0.191150 0.150000
v -0.150000 0.191150 0.050000
v -0.150000 0.191150 -0.050000
v -0.150000 0.191150 -0.150000
v -0.150000 0.691150 -0.050000
v -0.150000 0.691150 -0.150000
v -0.150000 0.791150 0.150000
v -0.150000 0.791150 0.050000
v -0.150000 0.791150 -0.050000
v -0.150000 0.791150 -0.150000
v -0.150000 0.891150 0.050000
v -0.150000 0.891150 -0.050000
v -0.050000 -0.008850 0.050000
v -0.050000 -0.008850 -0.050000
v -0.050000 0.091150 0.150000
v -0.050000 0.091150 0.050000
v -0.050000 0.091150 -0.050000
v -0.050000 0.091150 -0.150000
v -0.050000 0.191150 0.150000
v -0.050000 0.191150 0.050000
v -0.050000 0.191150 -0.050000
v -0.050000 0.191150 -0.150000
v -0.050000 0.791150 0.150000
v -0.050000 0.791150 0.050000
v -0.050000 0.791150 -0.050000
v -0.050000 0.791150 -0.150000
v -0.050000 0.891150 0.150000
v -0.050000 0.891150 0.050000
v -0.050000 0.891150 -0.050000
v -0.050000 0.891150 -0.150000
v -0.050000 0.991150 0.050000
v -0.050000 0.991150 -0.050000
v 0.050000 -0.008850 0.050000
v 0.050000 -0.008850 -0.050000
v 0.050000 0.091150 0.150000
v 0.050000 0.091150 0.050000
v 0.050000 0.091150 -0.050000
v 0.050000 0.091150 -0.150000
v 0.050000 0.191150 0.150000
v 0.050000 0.191150 0.050000
v 0.050000 0.191150 -0.050000
v 0.050000 0.191150 -0.150000
v 0.050000 0.791150 0.150000
v 0.050000 0.791150 0.050000
v 0.050000 0.791150 -0.050000
v 0.050000 0.791150 -0.150000
v 0.050000 0.891150 0.150000
v 0.050000 0.891150 0.050000
v 0.050000 0.891150 -0.050000
v 0.050000 0.891150 -0.150000
v 0.050000 0.991150 0.050000
v 0.050000 0.991150 -0.050000
v 0.150000 0.091150 0.050000
v 0.150000 0.091150 -0.050000
v 0.150000 0.191150 0.150000
v 0.150000 0.191150 0.050000
v 0.150000 0.191150 -0.050000
v 0.150000 0.191150 -0.150000
v 0.150000 0.691150 0.150000
v 0.150000 0.691150 0.050000
v 0.150000 0.791150 0.150000
v 0.150000 0.791150 0.050000
v 0.150000 0.791150 -0.050000
v 0.150000 0.791150 -0.150000
v 0.150000 0.891150 0.050000
v 0.150000 0.891150 -0.050000
v 0.250000 0.191150 0.050000
v 0.250000 0.191150 -0.050000
v 0.250000 0.791150 0.050000
v 0.250000 0.791150 -0.050000
v -0.150000 0.191150 0.150000
v -0.150000 0.791150 0.150000
v -0.050000 0.091150 0.150000
v -0.050000 0.191150 0.150000
v -0.050000 0.791150 0.150000
v -0.050000 0.891150 0.150000
v 0.050000 0.091150 0.150000
v 0.050000 0.191150 0.150000
v 0.050000 0.691150 0.150000
v 0.050000 0.791150 0.150000
v 0.050000 0.891150 0.150000
v 0.150000 0.191150 0.150000
v 0.150000 0.691150 0.150000
v 0.150000 0.791150 0.150000
v -0.250000 0.191150 0.050000
v -0.250000 0.791150 0.050000
v -0.150000 0.091150 0.050000
v -0.150000 0.191150 0.050000
v -0.150000 0.791150 0.050000
v -0.150000 0.891150 0.050000
v -0.050000 -0.008850 0.050000
v -0.050000 0.091150 0.050000
v -0.050000 0.191150 0.050000
v -0.050000 0.791150 0.050000
v -0.050000 0.891150 0.050000
v -0.050000 0.991150 0.050000
v 0.050000 -0.008850 0.050000
v 0.050000 0.091150 0.050000
v 0.050000 0.191150 0.050000
v 0.050000 0.791150 0.050000
v 0.050000 0.891150 0.050000
v 0.050000 0.991150 0.050000
v 0.150000 0.091150 0.050000
v 0.150000 0.191150 0.050000
v 0.150000 0.691150 0.050000
v 0.150000 0.791150 0.050000
v 0.150000 0.891150 0.050000
v 0.250000 0.191150 0.050000
v 0.250000 0.791150 0.050000
v -0.250000 0.191150 -0.050000
v -0.250000 0.791150 -0.050000
v -0.150000 0.091150 -0.050000
v -0.150000 0.191150 -0.050000
v -0.150000 0.691150 -0.050000
v -0.150000 0.791150 -0.050000
v -0.150000 0.891150 -0.050000
v -0.050000 -0.008850 -0.050000
v -0.050000 0.091150 -0.050000
v -0.050000 0.191150 -0.050000
v -0.050000 0.791150 -0.050000
v -0.050000 0.891150 -0.050000
v -0.050000 0.991150 -0.050000
v 0.050000 -0.008850 -0.050000
v 0.050000 0.091150 -0.050000
v 0.050000 0.191150 -0.050000
v 0.050000 0.791150 -0.050000
v 0.050000 0.891150 -0.050000
v 0.050000 0.991150 -0.050000
v 0.150000 0.091150 -0.050000
v 0.150000 0.191150 -0.050000
v 0.150000 0.791150 -0.050000
v 0.150000 0.891150 -0.050000
v 0.250000 0.191150 -0.050000
v 0.250000 0.791150 -0.050000
v -0.150000 0.191150 -0.150000
v -0.150000 0.691150 -0.150000
v -0.150000 0.791150 -0.150000
v -0.050000 0.091150 -0.150000
v -0.050000 0.191150 -0.150000
v -0.050000 0.691150 -0.150000
v -0.050000 0.791150 -0.150000
v -0.050000 0.891150 -0.150000
v 0.050000 0.091150 -0.150000
v 0.050000 0.191150 -0.150000
v 0.050000 0.791150 -0.150000
v 0.050000 0.891150 -0.150000
v 0.150000 0.191150 -0.150000
v 0.150000 0.791150 -0.150000
v -0.050000 -0.008850 0.050000
v 0.050000 -0.008850 0.050000
v -0.050000 -0.008850 -0.050000
v 0.050000 -0.008850 -0.050000
v -0.050000 0.091150 0.150000
v 0.050000 0.091150 0.150000
v -0.150000 0.091150 0.050000
v -0.050000 0.091150 0.050000
v 0.050000 0.091150 0.050000
v 0.150000 0.091150 0.050000
v -0.150000 0.091150 -0.050000
v -0.050000 0.091150 -0.050000
v 0.050000 0.091150 -0.050000
v 0.150000 0.091150 -0.050000
v -0.050000 0.091150 -0.150000
v 0.050000 0.091150 -0.150000
v -0.150000 0.191150 0.150000
v -0.050000 0.191150 0.150000
v 0.050000 0.191150 0.150000
v 0.150000 0.191150 0.150000
v -0.250000 0.191150 0.050000
v -0.150000 0.191150 0.050000
v -0.050000 0.191150 0.050000
v 0.050000 0.191150 0.050000
v 0.150000 0.191150 0.050000
v 0.250000 0.191150 0.050000
v -0.250000 0.191150 -0.050000
v -0.150000 0.191150 -0.050000
v -0.050000 0.191150 -0.050000
v 0.050000 0.191150 -0.050000
v 0.150000 0.191150 -0.050000
v 0.250000 0.191150 -0.050000
v -0.150000 0.191150 -0.150000
v -0.050000 0.191150 -0.150000
v 0.050000 0.191150 -0.150000
v 0.150000 0.191150 -0.150000
v -0.150000 0.791150 0.150000
v -0.050000 0.791150 0.150000
v 0.050000 0.791150 0.150000
v 0.150000 0.791150 0.150000
v -0.250000 0.791150 0.050000
v -0.150000 0.791150 0.050000
v -0.050000 0.791150 0.050000
v 0.050000 0.791150 0.050000
v 0.150000 0.791150 0.050000
v 0.250000 0.791150 0.050000
v -0.250000 0.791150 -0.050000
v -0.150000 0.791150 -0.050000
v -0.050000 0.791150 -0.050000
v 0.050000 0.791150 -0.050000
v 0.150000 0.791150 -0.050000
v 0.250000 0.791150 -0.050000
v -0.150000 0.791150 -0.150000
v -0.050000 0.791150 -0.150000
v 0.050000 0.791150 -0.150000
v 0.150000 0.791150 -0.150000
v -0.050000 0.891150 0.150000
v 0.050000 0.891150 0.150000
v -0.150000 0.891150 0.050000
v -0.050000 0.891150 0.050000
v 0.050000 0.891150 0.050000
v 0.150000 0.891150 0.050000
v -0.150000 0.891150 -0.050000
v -0.050000 0.891150 -0.050000
v 0.050000 0.891150 -0.050000
v 0.150000 0.891150 -0.050000
v -0.050000 0.891150 -0.150000
v 0.050000 0.891150 -0.150000
v -0.050000 0.991150 0.050000
v 0.050000 0.991150 0.050000
v -0.050000 0.991150 -0.050000
v 0.050000 0.991150 -0.050000
vn -1.0000 -0.0000 -0.0000
vn 1.0000 -0.0000 -0.0000
vn -0.0000 -0.0000 1.0000
vn -0.0000 -0.0000 -1.0000
vn -0.0000 -1.0000 -0.0000
vn -0.0000 1.0000 -0.0000
vt 0.865234 0.500000
vt 0.853516 0.500000
vt 0.841797 0.500000
s 0
usemtl palette
f 3/1/1 2/1/1 1/1/1
f 4/1/1 2/1/1 3/1/1
f 8/1/1 6/1/1 5/1/1
f 9/1/1 6/1/1 8/1/1
f 11/2/1 10/2/1 9/2/1
f 12/2/1 10/2/1 11/2/1
f 13/3/1 8/3/1 7/3/1
f 14/3/1 8/3/1 13/3/1
f 15/3/1 12/3/1 11/3/1
f 16/3/1 12/3/1 15/3/1
f 17/1/1 15/1/1 14/1/1
f 18/1/1 15/1/1 17/1/1
f 22/1/1 20/1/1 19/1/1
f 23/1/1 20/1/1 22/1/1
f 25/2/1 22/2/1 21/2/1
f 26/2/1 22/2/1 25/2/1
f 27/2/1 24/2/1 23/2/1
f 28/2/1 24/2/1 27/2/1
f 33/3/1 30/3/1 29/3/1
f 34/3/1 30/3/1 33/3/1
f 35/3/1 32/3/1 31/3/1
f 36/3/1 32/3/1 35/3/1
f 37/1/1 35/1/1 34/1/1
f 38/1/1 35/1/1 37/1/1
f 39/1/2 40/1/2 42/1/2
f 42/1/2 40/1/2 43/1/2
f 41/2/2 42/2/2 45/2/2
f 45/2/2 42/2/2 46/2/2
f 43/2/2 44/2/2 47/2/2
f 47/2/2 44/2/2 48/2/2
f 49/3/2 50/3/2 53/3/2
f 53/3/2 50/3/2 54/3/2
f 51/3/2 52/3/2 55/3/2
f 55/3/2 52/3/2 56/3/2
f 54/1/2 55/1/2 57/1/2
f 57/1/2 55/1/2 58/1/2
f 59/1/2 60/1/2 62/1/2
f 62/1/2 60/1/2 63/1/2
f 61/2/2 62/2/2 65/2/2
f 65/2/2 62/2/2 66/2/2
f 65/3/2 66/3/2 67/3/2
f 67/3/2 66/3/2 68/3/2
f 63/3/2 64/3/2 69/3/2
f 69/3/2 64/3/2 70/3/2
f 68/1/2 69/1/2 71/1/2
f 71/1/2 69/1/2 72/1/2
f 73/1/2 74/1/2 75/1/2
f 75/1/2 74/1/2 76/1/2
f 80/3/3 78/3/3 77/3/3
f 81/3/3 78/3/3 80/3/3
f 83/2/3 80/2/3 79/2/3
f 83/2/3 81/2/3 80/2/3
f 84/2/3 81/2/3 83/2/3
f 85/2/3 81/2/3 84/2/3
f 86/3/3 82/3/3 81/3/3
f 86/2/3 81/2/3 85/2/3
f 87/3/3 82/3/3 86/3/3
f 88/2/3 85/2/3 84/2/3
f 89/3/3 86/3/3 85/3/3
f 89/2/3 85/2/3 88/2/3
f 90/3/3 86/3/3 89/3/3
f 94/1/3 92/1/3 91/1/3
f 95/1/3 92/1/3 94/1/3
f 98/1/3 94/1/3 93/1/3
f 99/1/3 94/1/3 98/1/3
f 100/1/3 96/1/3 95/1/3
f 101/1/3 96/1/3 100/1/3
f 103/1/3 98/1/3 97/1/3
f 104/1/3 98/1/3 103/1/3
f 107/1/3 102/1/3 101/1/3
f 108/1/3 102/1/3 107/1/3
f 109/1/3 105/1/3 104/1/3
f 110/1/3 105/1/3 109/1/3
f 112/1/3 107/1/3 106/1/3
f 113/1/3 107/1/3 112/1/3
f 114/1/3 111/1/3 110/1/3
f 114/1/3 112/1/3 111/1/3
f 115/1/3 112/1/3 114/1/3
f 116/1/4 117/1/4 119/1/4
f 119/1/4 117/1/4 120/1/4
f 120/1/4 117/1/4 121/1/4
f 118/1/4 119/1/4 124/1/4
f 124/1/4 119/1/4 125/1/4
f 121/1/4 122/1/4 126/1/4
f 126/1/4 122/1/4 127/1/4
f 123/1/4 124/1/4 129/1/4
f 129/1/4 124/1/4 130/1/4
f 127/1/4 128/1/4 133/1/4
f 133/1/4 128/1/4 134/1/4
f 130/1/4 131/1/4 135/1/4
f 135/1/4 131/1/4 136/1/4
f 132/1/4 133/1/4 137/1/4
f 137/1/4 133/1/4 138/1/4
f 136/1/4 137/1/4 139/1/4
f 139/1/4 137/1/4 140/1/4
f 141/2/4 142/2/4 145/2/4
f 142/3/4 143/3/4 146/3/4
f 145/2/4 142/2/4 146/2/4
f 146/3/4 143/3/4 147/3/4
f 144/2/4 145/2/4 149/2/4
f 145/2/4 146/2/4 149/2/4
f 146/2/4 147/2/4 149/2/4
f 149/2/4 147/2/4 150/2/4
f 147/3/4 148/3/4 151/3/4
f 150/2/4 147/2/4 151/2/4
f 151/3/4 148/3/4 152/3/4
f 150/3/4 151/3/4 153/3/4
f 153/3/4 151/3/4 154/3/4
f 157/1/5 156/1/5 155/1/5
f 158/1/5 156/1/5 157/1/5
f 162/2/5 160/2/5 159/2/5
f 163/2/5 160/2/5 162/2/5
f 165/1/5 162/1/5 161/1/5
f 166/1/5 162/1/5 165/1/5
f 167/1/5 164/1/5 163/1/5
f 168/1/5 164/1/5 167/1/5
f 169/2/5 167/2/5 166/2/5
f 170/2/5 167/2/5 169/2/5
f 176/3/5 172/3/5 171/3/5
f 177/3/5 172/3/5 176/3/5
f 178/2/5 174/2/5 173/2/5
f 179/2/5 174/2/5 178/2/5
f 181/1/5 176/1/5 175/1/5
f 182/1/5 176/1/5 181/1/5
f 185/1/5 180/1/5 179/1/5
f 186/1/5 180/1/5 185/1/5
f 187/2/5 183/2/5 182/2/5
f 188/2/5 183/2/5 187/2/5
f 189/3/5 185/3/5 184/3/5
f 190/3/5 185/3/5 189/3/5
f 191/3/6 192/3/6 196/3/6
f 196/3/6 192/3/6 197/3/6
f 193/3/6 194/3/6 198/3/6
f 198/3/6 194/3/6 199/3/6
f 195/1/6 196/1/6 201/1/6
f 201/1/6 196/1/6 202/1/6
f 199/1/6 200/1/6 205/1/6
f 205/1/6 200/1/6 206/1/6
f 202/3/6 203/3/6 207/3/6
f 207/3/6 203/3/6 208/3/6
f 204/3/6 205/3/6 209/3/6
f 209/3/6 205/3/6 210/3/6
f 211/3/6 212/3/6 214/3/6
f 214/3/6 212/3/6 215/3/6
f 213/1/6 214/1/6 217/1/6
f 217/1/6 214/1/6 218/1/6
f 215/1/6 216/1/6 219/1/6
f 219/1/6 216/1/6 220/1/6
f 218/3/6 219/3/6 221/3/6
f 221/3/6 219/3/6 222/3/6
f 223/1/6 224/1/6 225/1/6
f 225/1/6 224/1/6 226/1/6
