# MagicaVoxel @ Ephtracy

# group
o canSide

# material
mtllib debris1-5-canSide.mtl
usemtl palette

# normals
vn -1 0 0
vn 1 0 0
vn 0 0 1
vn 0 0 -1
vn 0 -1 0
vn 0 1 0

# texcoords
vt 0.853516 0.5
vt 0.958984 0.5
vt 0.970703 0.5

# verts
v 11.4 0 6.4
v 11.4 0 6.2
v 11.4 0.1 6.5
v 11.4 0.1 6.4
v 11.4 0.1 6.2
v 11.4 0.1 6.1
v 11.4 0.3 6.5
v 11.4 0.3 6.4
v 11.4 0.3 6.2
v 11.4 0.3 6.1
v 11.4 0.4 6.4
v 11.4 0.4 6.2
v 11.5 0 6.5
v 11.5 0 6.4
v 11.5 0 6.2
v 11.5 0 6.1
v 11.5 0.1 6.5
v 11.5 0.1 6.4
v 11.5 0.1 6.2
v 11.5 0.1 6.1
v 11.5 0.3 6.5
v 11.5 0.3 6.4
v 11.5 0.3 6.2
v 11.5 0.3 6.1
v 11.5 0.4 6.5
v 11.5 0.4 6.4
v 11.5 0.4 6.2
v 11.5 0.4 6.1
v 12.1 0 6.5
v 12.1 0 6.4
v 12.1 0 6.2
v 12.1 0 6.1
v 12.1 0.1 6.5
v 12.1 0.1 6.4
v 12.1 0.1 6.2
v 12.1 0.1 6.1
v 12.1 0.3 6.5
v 12.1 0.3 6.4
v 12.1 0.3 6.2
v 12.1 0.3 6.1
v 12.1 0.4 6.5
v 12.1 0.4 6.4
v 12.1 0.4 6.2
v 12.1 0.4 6.1
v 12.2 0 6.4
v 12.2 0 6.2
v 12.2 0.1 6.5
v 12.2 0.1 6.4
v 12.2 0.1 6.2
v 12.2 0.1 6.1
v 12.2 0.3 6.5
v 12.2 0.3 6.4
v 12.2 0.3 6.2
v 12.2 0.3 6.1
v 12.2 0.4 6.4
v 12.2 0.4 6.2
v 11.4 0.1 6.5
v 11.4 0.3 6.5
v 11.5 0 6.5
v 11.5 0.1 6.5
v 11.5 0.3 6.5
v 11.5 0.4 6.5
v 12.1 0 6.5
v 12.1 0.1 6.5
v 12.1 0.3 6.5
v 12.1 0.4 6.5
v 12.2 0.1 6.5
v 12.2 0.3 6.5
v 11.4 0 6.4
v 11.4 0.1 6.4
v 11.4 0.3 6.4
v 11.4 0.4 6.4
v 11.5 0 6.4
v 11.5 0.1 6.4
v 11.5 0.3 6.4
v 11.5 0.4 6.4
v 12.1 0 6.4
v 12.1 0.1 6.4
v 12.1 0.3 6.4
v 12.1 0.4 6.4
v 12.2 0 6.4
v 12.2 0.1 6.4
v 12.2 0.3 6.4
v 12.2 0.4 6.4
v 11.4 0 6.2
v 11.4 0.1 6.2
v 11.4 0.3 6.2
v 11.4 0.4 6.2
v 11.5 0 6.2
v 11.5 0.1 6.2
v 11.5 0.3 6.2
v 11.5 0.4 6.2
v 12.1 0 6.2
v 12.1 0.1 6.2
v 12.1 0.3 6.2
v 12.1 0.4 6.2
v 12.2 0 6.2
v 12.2 0.1 6.2
v 12.2 0.3 6.2
v 12.2 0.4 6.2
v 11.4 0.1 6.1
v 11.4 0.3 6.1
v 11.5 0 6.1
v 11.5 0.1 6.1
v 11.5 0.3 6.1
v 11.5 0.4 6.1
v 11.7 0.3 6.1
v 11.7 0.4 6.1
v 11.8 0.1 6.1
v 11.8 0.3 6.1
v 11.9 0.1 6.1
v 11.9 0.2 6.1
v 11.9 0.3 6.1
v 11.9 0.4 6.1
v 12 0.2 6.1
v 12 0.3 6.1
v 12.1 0 6.1
v 12.1 0.1 6.1
v 12.1 0.3 6.1
v 12.1 0.4 6.1
v 12.2 0.1 6.1
v 12.2 0.3 6.1
v 11.5 0 6.5
v 12.1 0 6.5
v 11.4 0 6.4
v 11.5 0 6.4
v 12.1 0 6.4
v 12.2 0 6.4
v 11.4 0 6.2
v 11.5 0 6.2
v 12.1 0 6.2
v 12.2 0 6.2
v 11.5 0 6.1
v 12.1 0 6.1
v 11.4 0.1 6.5
v 11.5 0.1 6.5
v 12.1 0.1 6.5
v 12.2 0.1 6.5
v 11.4 0.1 6.4
v 11.5 0.1 6.4
v 12.1 0.1 6.4
v 12.2 0.1 6.4
v 11.4 0.1 6.2
v 11.5 0.1 6.2
v 12.1 0.1 6.2
v 12.2 0.1 6.2
v 11.4 0.1 6.1
v 11.5 0.1 6.1
v 12.1 0.1 6.1
v 12.2 0.1 6.1
v 11.4 0.3 6.5
v 11.5 0.3 6.5
v 12.1 0.3 6.5
v 12.2 0.3 6.5
v 11.4 0.3 6.4
v 11.5 0.3 6.4
v 12.1 0.3 6.4
v 12.2 0.3 6.4
v 11.4 0.3 6.2
v 11.5 0.3 6.2
v 12.1 0.3 6.2
v 12.2 0.3 6.2
v 11.4 0.3 6.1
v 11.5 0.3 6.1
v 12.1 0.3 6.1
v 12.2 0.3 6.1
v 11.5 0.4 6.5
v 12.1 0.4 6.5
v 11.4 0.4 6.4
v 11.5 0.4 6.4
v 11.7 0.4 6.4
v 11.8 0.4 6.4
v 11.9 0.4 6.4
v 12 0.4 6.4
v 12.1 0.4 6.4
v 12.2 0.4 6.4
v 11.7 0.4 6.3
v 11.8 0.4 6.3
v 11.9 0.4 6.3
v 12 0.4 6.3
v 11.4 0.4 6.2
v 11.5 0.4 6.2
v 11.7 0.4 6.2
v 11.8 0.4 6.2
v 12.1 0.4 6.2
v 12.2 0.4 6.2
v 11.5 0.4 6.1
v 11.7 0.4 6.1
v 11.9 0.4 6.1
v 12.1 0.4 6.1

# faces
f 4/3/1 2/3/1 1/3/1
f 5/3/1 2/3/1 4/3/1
f 7/3/1 4/3/1 3/3/1
f 7/3/1 6/3/1 5/3/1
f 7/3/1 5/3/1 4/3/1
f 8/3/1 6/3/1 7/3/1
f 9/3/1 6/3/1 8/3/1
f 10/3/1 6/3/1 9/3/1
f 11/3/1 9/3/1 8/3/1
f 12/3/1 9/3/1 11/3/1
f 17/1/1 14/1/1 13/1/1
f 18/1/1 14/1/1 17/1/1
f 19/1/1 16/1/1 15/1/1
f 20/1/1 16/1/1 19/1/1
f 25/1/1 22/1/1 21/1/1
f 26/1/1 22/1/1 25/1/1
f 27/1/1 24/1/1 23/1/1
f 28/1/1 24/1/1 27/1/1
f 29/1/2 30/1/2 33/1/2
f 33/1/2 30/1/2 34/1/2
f 31/1/2 32/1/2 35/1/2
f 35/1/2 32/1/2 36/1/2
f 37/1/2 38/1/2 41/1/2
f 41/1/2 38/1/2 42/1/2
f 39/1/2 40/1/2 43/1/2
f 43/1/2 40/1/2 44/1/2
f 45/3/2 46/3/2 48/3/2
f 48/3/2 46/3/2 49/3/2
f 47/3/2 48/3/2 51/3/2
f 49/3/2 50/3/2 51/3/2
f 48/3/2 49/3/2 51/3/2
f 51/3/2 50/3/2 52/3/2
f 52/3/2 50/3/2 53/3/2
f 53/3/2 50/3/2 54/3/2
f 52/3/2 53/3/2 55/3/2
f 55/3/2 53/3/2 56/3/2
f 60/3/3 58/3/3 57/3/3
f 61/3/3 58/3/3 60/3/3
f 63/1/3 60/1/3 59/1/3
f 63/1/3 62/1/3 61/1/3
f 63/1/3 61/1/3 60/1/3
f 64/1/3 62/1/3 63/1/3
f 65/1/3 62/1/3 64/1/3
f 66/1/3 62/1/3 65/1/3
f 67/3/3 65/3/3 64/3/3
f 68/3/3 65/3/3 67/3/3
f 73/3/3 70/3/3 69/3/3
f 74/3/3 70/3/3 73/3/3
f 75/3/3 72/3/3 71/3/3
f 76/3/3 72/3/3 75/3/3
f 81/3/3 78/3/3 77/3/3
f 82/3/3 78/3/3 81/3/3
f 83/3/3 80/3/3 79/3/3
f 84/3/3 80/3/3 83/3/3
f 85/3/4 86/3/4 89/3/4
f 89/3/4 86/3/4 90/3/4
f 87/3/4 88/3/4 91/3/4
f 91/3/4 88/3/4 92/3/4
f 93/3/4 94/3/4 97/3/4
f 97/3/4 94/3/4 98/3/4
f 95/3/4 96/3/4 99/3/4
f 99/3/4 96/3/4 100/3/4
f 101/3/4 102/3/4 104/3/4
f 104/3/4 102/3/4 105/3/4
f 103/1/4 104/1/4 107/1/4
f 105/1/4 106/1/4 107/1/4
f 104/1/4 105/1/4 107/1/4
f 107/1/4 106/1/4 108/1/4
f 103/1/4 107/1/4 109/1/4
f 107/2/4 108/2/4 110/2/4
f 109/1/4 107/1/4 110/1/4
f 103/1/4 109/1/4 111/1/4
f 109/2/4 110/2/4 111/2/4
f 111/2/4 110/2/4 112/2/4
f 110/2/4 108/2/4 113/2/4
f 112/2/4 110/2/4 113/2/4
f 113/2/4 108/2/4 114/2/4
f 111/1/4 112/1/4 115/1/4
f 112/2/4 113/2/4 115/2/4
f 113/1/4 114/1/4 116/1/4
f 115/2/4 113/2/4 116/2/4
f 103/1/4 111/1/4 117/1/4
f 111/1/4 115/1/4 117/1/4
f 115/1/4 116/1/4 117/1/4
f 117/1/4 116/1/4 118/1/4
f 116/1/4 114/1/4 119/1/4
f 118/1/4 116/1/4 119/1/4
f 119/1/4 114/1/4 120/1/4
f 118/3/4 119/3/4 121/3/4
f 121/3/4 119/3/4 122/3/4
f 126/1/5 124/1/5 123/1/5
f 127/1/5 124/1/5 126/1/5
f 129/3/5 126/3/5 125/3/5
f 130/1/5 127/1/5 126/1/5
f 130/3/5 126/3/5 129/3/5
f 131/3/5 128/3/5 127/3/5
f 131/1/5 127/1/5 130/1/5
f 132/3/5 128/3/5 131/3/5
f 133/1/5 131/1/5 130/1/5
f 134/1/5 131/1/5 133/1/5
f 139/3/5 136/3/5 135/3/5
f 140/3/5 136/3/5 139/3/5
f 141/3/5 138/3/5 137/3/5
f 142/3/5 138/3/5 141/3/5
f 147/3/5 144/3/5 143/3/5
f 148/3/5 144/3/5 147/3/5
f 149/3/5 146/3/5 145/3/5
f 150/3/5 146/3/5 149/3/5
f 151/3/6 152/3/6 155/3/6
f 155/3/6 152/3/6 156/3/6
f 153/3/6 154/3/6 157/3/6
f 157/3/6 154/3/6 158/3/6
f 159/3/6 160/3/6 163/3/6
f 163/3/6 160/3/6 164/3/6
f 161/3/6 162/3/6 165/3/6
f 165/3/6 162/3/6 166/3/6
f 167/1/6 168/1/6 170/1/6
f 170/1/6 168/1/6 171/1/6
f 171/1/6 168/1/6 172/1/6
f 172/1/6 168/1/6 173/1/6
f 173/1/6 168/1/6 174/1/6
f 174/1/6 168/1/6 175/1/6
f 170/1/6 171/1/6 177/1/6
f 171/2/6 172/2/6 177/2/6
f 172/1/6 173/1/6 178/1/6
f 177/2/6 172/2/6 178/2/6
f 173/2/6 174/2/6 179/2/6
f 178/1/6 173/1/6 179/1/6
f 174/1/6 175/1/6 180/1/6
f 179/2/6 174/2/6 180/2/6
f 169/3/6 170/3/6 181/3/6
f 170/1/6 177/1/6 182/1/6
f 181/3/6 170/3/6 182/3/6
f 177/1/6 178/1/6 182/1/6
f 182/1/6 178/1/6 183/1/6
f 178/2/6 179/2/6 184/2/6
f 183/1/6 178/1/6 184/1/6
f 180/1/6 175/1/6 185/1/6
f 175/3/6 176/3/6 185/3/6
f 179/1/6 180/1/6 185/1/6
f 185/3/6 176/3/6 186/3/6
f 182/1/6 183/1/6 187/1/6
f 183/2/6 184/2/6 188/2/6
f 187/1/6 183/1/6 188/1/6
f 184/2/6 179/2/6 189/2/6
f 188/2/6 184/2/6 189/2/6
f 179/1/6 185/1/6 189/1/6
f 189/1/6 185/1/6 190/1/6
