# MagicaVoxel @ Ephtracy

# group
o 

# material
mtllib sword.mtl
usemtl palette

# normals
vn 0 0 1
vn 0 0 -1
vn 0 -1 0
vn 0 1 0
vn -1 0 0
vn 1 0 0

# texcoords
vt 0.169922 0.5
vt 0.369141 0.5
vt 0.505859 0.5
vt 0.986328 0.5

# verts
v -0.2 4.5 0.5
v -0.2 4.6 0.5
v 0.3 4.5 0.5
v 0.3 4.6 0.5
v -0.3 4.5 0.4
v -0.3 4.6 0.4
v -0.2 4.5 0.4
v -0.2 4.6 0.4
v 0.3 4.5 0.4
v 0.3 4.6 0.4
v 0.4 4.5 0.4
v 0.4 4.6 0.4
v -0.2 0.8 0.3
v -0.2 4.5 0.3
v -0.1 0.3 0.3
v -0.1 0.8 0.3
v -0.1 4.6 0.3
v -0.1 4.7 0.3
v -0.1 5.5 0.3
v -0.1 5.7 0.3
v -2.98023e-08 0.2 0.3
v -2.98023e-08 0.3 0.3
v -2.98023e-08 4.5 0.3
v 0.1 0.2 0.3
v 0.1 0.3 0.3
v 0.1 4.5 0.3
v 0.2 0.3 0.3
v 0.2 0.8 0.3
v 0.2 4.6 0.3
v 0.2 4.7 0.3
v 0.2 5.5 0.3
v 0.2 5.7 0.3
v 0.3 0.8 0.3
v 0.3 4.5 0.3
v -0.2 0.8 0.2
v -0.2 4.5 0.2
v -0.1 0.3 0.2
v -0.1 0.8 0.2
v -2.98023e-08 0.2 0.2
v -2.98023e-08 0.3 0.2
v -2.98023e-08 4.5 0.2
v 0.1 0.2 0.2
v 0.1 0.3 0.2
v 0.1 4.5 0.2
v 0.2 0.3 0.2
v 0.2 0.8 0.2
v 0.3 0.8 0.2
v 0.3 4.5 0.2
v -0.3 4.5 0.1
v -0.3 4.6 0.1
v -0.2 4.5 0.1
v -0.2 4.6 0.1
v -0.1 4.6 0.1
v -0.1 4.7 0.1
v -0.1 5.5 0.1
v -0.1 5.7 0.1
v 0.2 4.6 0.1
v 0.2 4.7 0.1
v 0.2 5.5 0.1
v 0.2 5.7 0.1
v 0.3 4.5 0.1
v 0.3 4.6 0.1
v 0.4 4.5 0.1
v 0.4 4.6 0.1
v -0.2 4.5 0
v -0.2 4.6 0
v 0.3 4.5 0
v 0.3 4.6 0
v -2.98023e-08 0.2 0.3
v 0.1 0.2 0.3
v -2.98023e-08 0.2 0.2
v 0.1 0.2 0.2
v -0.1 0.3 0.3
v -2.98023e-08 0.3 0.3
v 0.1 0.3 0.3
v 0.2 0.3 0.3
v -0.1 0.3 0.2
v -2.98023e-08 0.3 0.2
v 0.1 0.3 0.2
v 0.2 0.3 0.2
v -0.2 0.8 0.3
v -0.1 0.8 0.3
v 0.2 0.8 0.3
v 0.3 0.8 0.3
v -0.2 0.8 0.2
v -0.1 0.8 0.2
v 0.2 0.8 0.2
v 0.3 0.8 0.2
v -0.2 4.5 0.5
v 0.3 4.5 0.5
v -0.3 4.5 0.4
v -0.2 4.5 0.4
v 0.3 4.5 0.4
v 0.4 4.5 0.4
v -0.2 4.5 0.3
v -2.98023e-08 4.5 0.3
v 0.1 4.5 0.3
v 0.3 4.5 0.3
v -0.2 4.5 0.2
v -2.98023e-08 4.5 0.2
v 0.1 4.5 0.2
v 0.3 4.5 0.2
v -0.3 4.5 0.1
v -0.2 4.5 0.1
v 0.3 4.5 0.1
v 0.4 4.5 0.1
v -0.2 4.5 0
v 0.3 4.5 0
v -0.2 4.6 0.5
v 0.3 4.6 0.5
v -0.3 4.6 0.4
v -0.2 4.6 0.4
v 0.3 4.6 0.4
v 0.4 4.6 0.4
v -0.1 4.6 0.3
v 0.2 4.6 0.3
v -0.3 4.6 0.1
v -0.2 4.6 0.1
v -0.1 4.6 0.1
v 0.2 4.6 0.1
v 0.3 4.6 0.1
v 0.4 4.6 0.1
v -0.2 4.6 0
v 0.3 4.6 0
v -0.1 5.7 0.3
v 0.2 5.7 0.3
v -0.1 5.7 0.1
v 0.2 5.7 0.1
v -0.3 4.5 0.4
v -0.3 4.5 0.1
v -0.3 4.6 0.4
v -0.3 4.6 0.1
v -0.2 0.8 0.3
v -0.2 0.8 0.2
v -0.2 4.5 0.5
v -0.2 4.5 0.4
v -0.2 4.5 0.3
v -0.2 4.5 0.2
v -0.2 4.5 0.1
v -0.2 4.5 0
v -0.2 4.6 0.5
v -0.2 4.6 0.4
v -0.2 4.6 0.1
v -0.2 4.6 0
v -0.1 0.3 0.3
v -0.1 0.3 0.2
v -0.1 0.8 0.3
v -0.1 0.8 0.2
v -0.1 4.6 0.3
v -0.1 4.6 0.1
v -0.1 4.7 0.3
v -0.1 4.7 0.1
v -0.1 5.5 0.3
v -0.1 5.5 0.1
v -0.1 5.7 0.3
v -0.1 5.7 0.1
v -2.98023e-08 0.2 0.3
v -2.98023e-08 0.2 0.2
v -2.98023e-08 0.3 0.3
v -2.98023e-08 0.3 0.2
v 0.1 0.2 0.3
v 0.1 0.2 0.2
v 0.1 0.3 0.3
v 0.1 0.3 0.2
v 0.2 0.3 0.3
v 0.2 0.3 0.2
v 0.2 0.8 0.3
v 0.2 0.8 0.2
v 0.2 4.6 0.3
v 0.2 4.6 0.1
v 0.2 4.7 0.3
v 0.2 4.7 0.1
v 0.2 5.5 0.3
v 0.2 5.5 0.1
v 0.2 5.7 0.3
v 0.2 5.7 0.1
v 0.3 0.8 0.3
v 0.3 0.8 0.2
v 0.3 4.5 0.5
v 0.3 4.5 0.4
v 0.3 4.5 0.3
v 0.3 4.5 0.2
v 0.3 4.5 0.1
v 0.3 4.5 0
v 0.3 4.6 0.5
v 0.3 4.6 0.4
v 0.3 4.6 0.1
v 0.3 4.6 0
v 0.4 4.5 0.4
v 0.4 4.5 0.1
v 0.4 4.6 0.4
v 0.4 4.6 0.1

# faces
f 3/2/1 2/2/1 1/2/1
f 4/2/1 2/2/1 3/2/1
f 7/2/1 6/2/1 5/2/1
f 8/2/1 6/2/1 7/2/1
f 11/2/1 10/2/1 9/2/1
f 12/2/1 10/2/1 11/2/1
f 16/1/1 14/1/1 13/1/1
f 22/1/1 16/1/1 15/1/1
f 23/1/1 14/1/1 16/1/1
f 23/1/1 16/1/1 22/1/1
f 24/1/1 22/1/1 21/1/1
f 25/3/1 23/3/1 22/3/1
f 25/1/1 22/1/1 24/1/1
f 26/3/1 23/3/1 25/3/1
f 27/1/1 26/1/1 25/1/1
f 28/1/1 26/1/1 27/1/1
f 29/2/1 18/2/1 17/2/1
f 30/4/1 19/4/1 18/4/1
f 30/2/1 18/2/1 29/2/1
f 31/2/1 20/2/1 19/2/1
f 31/4/1 19/4/1 30/4/1
f 32/2/1 20/2/1 31/2/1
f 33/1/1 26/1/1 28/1/1
f 34/1/1 26/1/1 33/1/1
f 35/1/2 36/1/2 38/1/2
f 37/1/2 38/1/2 40/1/2
f 38/1/2 36/1/2 41/1/2
f 40/1/2 38/1/2 41/1/2
f 39/1/2 40/1/2 42/1/2
f 40/3/2 41/3/2 43/3/2
f 42/1/2 40/1/2 43/1/2
f 43/3/2 41/3/2 44/3/2
f 43/1/2 44/1/2 45/1/2
f 45/1/2 44/1/2 46/1/2
f 46/1/2 44/1/2 47/1/2
f 47/1/2 44/1/2 48/1/2
f 49/2/2 50/2/2 51/2/2
f 51/2/2 50/2/2 52/2/2
f 53/2/2 54/2/2 57/2/2
f 54/4/2 55/4/2 58/4/2
f 57/2/2 54/2/2 58/2/2
f 55/2/2 56/2/2 59/2/2
f 58/4/2 55/4/2 59/4/2
f 59/2/2 56/2/2 60/2/2
f 61/2/2 62/2/2 63/2/2
f 63/2/2 62/2/2 64/2/2
f 65/2/2 66/2/2 67/2/2
f 67/2/2 66/2/2 68/2/2
f 71/1/3 70/1/3 69/1/3
f 72/1/3 70/1/3 71/1/3
f 77/1/3 74/1/3 73/1/3
f 78/1/3 74/1/3 77/1/3
f 79/1/3 76/1/3 75/1/3
f 80/1/3 76/1/3 79/1/3
f 85/1/3 82/1/3 81/1/3
f 86/1/3 82/1/3 85/1/3
f 87/1/3 84/1/3 83/1/3
f 88/1/3 84/1/3 87/1/3
f 92/2/3 90/2/3 89/2/3
f 93/2/3 90/2/3 92/2/3
f 95/2/3 92/2/3 91/2/3
f 95/2/3 94/2/3 93/2/3
f 95/2/3 93/2/3 92/2/3
f 96/2/3 94/2/3 95/2/3
f 97/2/3 94/2/3 96/2/3
f 98/2/3 94/2/3 97/2/3
f 99/2/3 95/2/3 91/2/3
f 102/2/3 94/2/3 98/2/3
f 103/2/3 101/2/3 100/2/3
f 103/2/3 102/2/3 101/2/3
f 103/2/3 99/2/3 91/2/3
f 103/2/3 100/2/3 99/2/3
f 104/2/3 102/2/3 103/2/3
f 105/2/3 94/2/3 102/2/3
f 105/2/3 102/2/3 104/2/3
f 106/2/3 94/2/3 105/2/3
f 107/2/3 105/2/3 104/2/3
f 108/2/3 105/2/3 107/2/3
f 109/2/4 110/2/4 112/2/4
f 112/2/4 110/2/4 113/2/4
f 111/2/4 112/2/4 115/2/4
f 113/2/4 114/2/4 115/2/4
f 112/2/4 113/2/4 115/2/4
f 115/2/4 114/2/4 116/2/4
f 111/2/4 115/2/4 117/2/4
f 117/2/4 115/2/4 118/2/4
f 118/2/4 115/2/4 119/2/4
f 116/2/4 114/2/4 120/2/4
f 120/2/4 114/2/4 121/2/4
f 121/2/4 114/2/4 122/2/4
f 118/2/4 119/2/4 123/2/4
f 120/2/4 121/2/4 123/2/4
f 119/2/4 120/2/4 123/2/4
f 123/2/4 121/2/4 124/2/4
f 125/2/4 126/2/4 127/2/4
f 127/2/4 126/2/4 128/2/4
f 131/2/5 130/2/5 129/2/5
f 132/2/5 130/2/5 131/2/5
f 137/1/5 134/1/5 133/1/5
f 138/1/5 134/1/5 137/1/5
f 141/2/5 136/2/5 135/2/5
f 142/2/5 136/2/5 141/2/5
f 143/2/5 140/2/5 139/2/5
f 144/2/5 140/2/5 143/2/5
f 147/1/5 146/1/5 145/1/5
f 148/1/5 146/1/5 147/1/5
f 151/2/5 150/2/5 149/2/5
f 152/2/5 150/2/5 151/2/5
f 153/4/5 152/4/5 151/4/5
f 154/4/5 152/4/5 153/4/5
f 155/2/5 154/2/5 153/2/5
f 156/2/5 154/2/5 155/2/5
f 159/1/5 158/1/5 157/1/5
f 160/1/5 158/1/5 159/1/5
f 161/1/6 162/1/6 163/1/6
f 163/1/6 162/1/6 164/1/6
f 165/1/6 166/1/6 167/1/6
f 167/1/6 166/1/6 168/1/6
f 169/2/6 170/2/6 171/2/6
f 171/2/6 170/2/6 172/2/6
f 171/4/6 172/4/6 173/4/6
f 173/4/6 172/4/6 174/4/6
f 173/2/6 174/2/6 175/2/6
f 175/2/6 174/2/6 176/2/6
f 177/1/6 178/1/6 181/1/6
f 181/1/6 178/1/6 182/1/6
f 179/2/6 180/2/6 185/2/6
f 185/2/6 180/2/6 186/2/6
f 183/2/6 184/2/6 187/2/6
f 187/2/6 184/2/6 188/2/6
f 189/2/6 190/2/6 191/2/6
f 191/2/6 190/2/6 192/2/6
